<svg width="99" height="19" viewBox="0 0 99 19" fill="none" xmlns="http://www.w3.org/2000/svg">
<path d="M2 2.5H12C12.5523 2.5 13 2.94772 13 3.5V15.5C13 16.0523 12.5523 16.5 12 16.5H2C1.44772 16.5 1 16.0523 1 15.5V3.5C1 2.94772 1.44772 2.5 2 2.5Z" stroke="white" stroke-opacity="0.46" stroke-width="2"/>
<path d="M33.2967 3.13248L34.6167 5.77248C34.7967 6.13998 35.2767 6.49248 35.6817 6.55998L38.0742 6.95748C39.6042 7.21248 39.9642 8.32248 38.8617 9.41748L37.0017 11.2775C36.6867 11.5925 36.5142 12.2 36.6117 12.635L37.1442 14.9375C37.5642 16.76 36.5967 17.465 34.9842 16.5125L32.7417 15.185C32.3367 14.945 31.6692 14.945 31.2567 15.185L29.0142 16.5125C27.4092 17.465 26.4342 16.7525 26.8542 14.9375L27.3867 12.635C27.4842 12.2 27.3117 11.5925 26.9967 11.2775L25.1367 9.41748C24.0417 8.32248 24.3942 7.21248 25.9242 6.95748L28.3167 6.55998C28.7142 6.49248 29.1942 6.13998 29.3742 5.77248L30.6942 3.13248C31.4142 1.69998 32.5842 1.69998 33.2967 3.13248Z" stroke="white" stroke-opacity="0.46" stroke-width="1.5" stroke-linecap="round" stroke-linejoin="round"/>
<path d="M52.6855 4.37012H63.0655C64.3105 4.37012 65.3155 5.37512 65.3155 6.62012V9.11012" stroke="white" stroke-opacity="0.46" stroke-width="1.5" stroke-miterlimit="10" stroke-linecap="round" stroke-linejoin="round"/>
<path d="M55.0555 2L52.6855 4.37L55.0555 6.74M65.3155 14.63H54.9355C53.6905 14.63 52.6855 13.625 52.6855 12.38V9.89" stroke="white" stroke-opacity="0.46" stroke-width="1.5" stroke-miterlimit="10" stroke-linecap="round" stroke-linejoin="round"/>
<path d="M62.9453 17L65.3153 14.63L62.9453 12.26" stroke="white" stroke-opacity="0.46" stroke-width="1.5" stroke-miterlimit="10" stroke-linecap="round" stroke-linejoin="round"/>
</svg>
