<svg width="99" height="19" viewBox="0 0 99 19" fill="none" xmlns="http://www.w3.org/2000/svg">
<path d="M2 2.5H14C14.5523 2.5 15 2.94772 15 3.5V15.5C15 16.0523 14.5523 16.5 14 16.5H2C1.44772 16.5 1 16.0523 1 15.5V3.5C1 2.94772 1.44772 2.5 2 2.5Z" stroke="white" stroke-opacity="0.46" stroke-width="2"/>
<path d="M35.2967 3.13251L36.6167 5.77251C36.7967 6.14001 37.2767 6.49251 37.6817 6.56001L40.0742 6.95751C41.6042 7.21251 41.9642 8.32251 40.8617 9.41751L39.0017 11.2775C38.6867 11.5925 38.5142 12.2 38.6117 12.635L39.1442 14.9375C39.5642 16.76 38.5967 17.465 36.9842 16.5125L34.7417 15.185C34.3367 14.945 33.6692 14.945 33.2567 15.185L31.0142 16.5125C29.4092 17.465 28.4342 16.7525 28.8542 14.9375L29.3867 12.635C29.4842 12.2 29.3117 11.5925 28.9967 11.2775L27.1367 9.41751C26.0417 8.32251 26.3942 7.21251 27.9242 6.95751L30.3167 6.56001C30.7142 6.49251 31.1942 6.14001 31.3742 5.77251L32.6942 3.13251C33.4142 1.70001 34.5842 1.70001 35.2967 3.13251Z" stroke="white" stroke-opacity="0.46" stroke-width="1.5" stroke-linecap="round" stroke-linejoin="round"/>
<path d="M54.6855 4.37H65.0655C66.3105 4.37 67.3155 5.375 67.3155 6.62V9.10999" stroke="white" stroke-opacity="0.46" stroke-width="1.5" stroke-miterlimit="10" stroke-linecap="round" stroke-linejoin="round"/>
<path d="M57.0555 2L54.6855 4.37L57.0555 6.74M67.3155 14.63H56.9355C55.6905 14.63 54.6855 13.625 54.6855 12.38V9.89" stroke="white" stroke-opacity="0.46" stroke-width="1.5" stroke-miterlimit="10" stroke-linecap="round" stroke-linejoin="round"/>
<path d="M64.9453 17L67.3153 14.63L64.9453 12.26" stroke="white" stroke-opacity="0.46" stroke-width="1.5" stroke-miterlimit="10" stroke-linecap="round" stroke-linejoin="round"/>
</svg>
