<svg width="18" height="18" viewBox="0 0 18 18" fill="none" xmlns="http://www.w3.org/2000/svg">
<path d="M4.15594 8.33999C0.645937 8.58749 0.645937 13.695 4.15594 13.9425H5.59594M4.19344 8.33999C1.78594 1.64249 11.9409 -1.03501 13.1034 5.99999C16.3509 6.41249 17.6634 10.74 15.2034 12.8925C14.4534 13.575 13.4859 13.95 12.4734 13.9425H12.4059" stroke="#FBF7F7" stroke-opacity="0.35" stroke-width="1.5" stroke-miterlimit="10" stroke-linecap="round" stroke-linejoin="round"/>
<path d="M12.75 12.3975C12.75 12.9525 12.63 13.4775 12.405 13.9425C12.345 14.0775 12.2775 14.205 12.2025 14.325C11.8729 14.8806 11.4042 15.3409 10.8427 15.6605C10.2812 15.98 9.6461 16.1479 9 16.1475C7.635 16.1475 6.4425 15.4125 5.7975 14.325C5.7225 14.205 5.655 14.0775 5.595 13.9425C5.37 13.4775 5.25 12.9525 5.25 12.3975C5.25 10.3275 6.93 8.64746 9 8.64746C11.07 8.64746 12.75 10.3275 12.75 12.3975Z" stroke="#FBF7F7" stroke-opacity="0.35" stroke-width="1.5" stroke-miterlimit="10" stroke-linecap="round" stroke-linejoin="round"/>
<path d="M7.83008 12.3975L8.57258 13.14L10.1701 11.6625" stroke="#FBF7F7" stroke-opacity="0.35" stroke-width="1.5" stroke-linecap="round" stroke-linejoin="round"/>
</svg>
