<svg width="22" height="20" viewBox="0 0 22 20" fill="none" xmlns="http://www.w3.org/2000/svg">
<path d="M19.4087 9.25008V5.75008C19.4087 2.83341 18.2283 1.66675 15.2774 1.66675H11.7363C8.78535 1.66675 7.60498 2.83341 7.60498 5.75008V6.66675H10.2187C13.1696 6.66675 14.35 7.83341 14.35 10.7501V13.3334H15.2774C18.2283 13.3334 19.4087 12.1667 19.4087 9.25008Z" stroke="#790F0F" stroke-width="1.5" stroke-linecap="round" stroke-linejoin="round"/>
<path d="M14.3496 14.2501V10.7501C14.3496 7.83341 13.1693 6.66675 10.2183 6.66675H6.6772C3.72627 6.66675 2.5459 7.83341 2.5459 10.7501V14.2501C2.5459 17.1667 3.72627 18.3334 6.6772 18.3334H10.2183C13.1693 18.3334 14.3496 17.1667 14.3496 14.2501Z" stroke="#790F0F" stroke-width="1.5" stroke-linecap="round" stroke-linejoin="round"/>
<path d="M5.98584 12.5L7.62993 14.125L10.9097 10.875" stroke="#790F0F" stroke-width="1.5" stroke-linecap="round" stroke-linejoin="round"/>
</svg>
