<svg width="20" height="20" viewBox="0 0 20 20" fill="none" xmlns="http://www.w3.org/2000/svg">
<g clip-path="url(#clip0_547_7961)">
<path d="M7.50033 18.3333H12.5003C16.667 18.3333 18.3337 16.6666 18.3337 12.5V7.49996C18.3337 3.33329 16.667 1.66663 12.5003 1.66663H7.50033C3.33366 1.66663 1.66699 3.33329 1.66699 7.49996V12.5C1.66699 16.6666 3.33366 18.3333 7.50033 18.3333Z" stroke="#FAF1F1" stroke-opacity="0.49" stroke-width="1.5" stroke-linecap="round" stroke-linejoin="round"/>
<path d="M9.99967 12.9167C10.3827 12.9167 10.762 12.8413 11.1158 12.6947C11.4697 12.5481 11.7912 12.3333 12.0621 12.0624C12.3329 11.7916 12.5477 11.4701 12.6943 11.1162C12.8409 10.7623 12.9163 10.3831 12.9163 10C12.9163 9.61702 12.8409 9.23775 12.6943 8.88388C12.5477 8.53001 12.3329 8.20848 12.0621 7.93765C11.7912 7.66681 11.4697 7.45197 11.1158 7.30539C10.762 7.15882 10.3827 7.08337 9.99967 7.08337C9.22613 7.08337 8.48426 7.39066 7.93728 7.93765C7.3903 8.48463 7.08301 9.22649 7.08301 10C7.08301 10.7736 7.3903 11.5155 7.93728 12.0624C8.48426 12.6094 9.22613 12.9167 9.99967 12.9167Z" stroke="#FAF1F1" stroke-opacity="0.49" stroke-width="1.5" stroke-linecap="round" stroke-linejoin="round"/>
<path d="M14.6963 5.83337H14.7063" stroke="#FAF1F1" stroke-opacity="0.49" stroke-width="2" stroke-linecap="round" stroke-linejoin="round"/>
</g>
<defs>
<clipPath id="clip0_547_7961">
<rect width="20" height="20" fill="white"/>
</clipPath>
</defs>
</svg>
