<svg width="20" height="21" viewBox="0 0 20 21" fill="none" xmlns="http://www.w3.org/2000/svg">
<path d="M6.66663 11H12.5M6.66663 14.3333H10.3166M8.33329 5.83333H11.6666C13.3333 5.83333 13.3333 5 13.3333 4.16667C13.3333 2.5 12.5 2.5 11.6666 2.5H8.33329C7.49996 2.5 6.66663 2.5 6.66663 4.16667C6.66663 5.83333 7.49996 5.83333 8.33329 5.83333Z" stroke="#FFFCFC" stroke-width="1.5" stroke-miterlimit="10" stroke-linecap="round" stroke-linejoin="round"/>
<path d="M13.3333 4.18335C16.1083 4.33335 17.5 5.35835 17.5 9.16668V14.1667C17.5 17.5 16.6667 19.1667 12.5 19.1667H7.5C3.33333 19.1667 2.5 17.5 2.5 14.1667V9.16668C2.5 5.36668 3.89167 4.33335 6.66667 4.18335" stroke="#FFFCFC" stroke-width="1.5" stroke-miterlimit="10" stroke-linecap="round" stroke-linejoin="round"/>
</svg>
