<svg width="18" height="19" viewBox="0 0 18 19" fill="none" xmlns="http://www.w3.org/2000/svg">
<path d="M10.2967 3.13248L11.6167 5.77248C11.7967 6.13998 12.2767 6.49248 12.6817 6.55998L15.0742 6.95748C16.6042 7.21248 16.9642 8.32248 15.8617 9.41748L14.0017 11.2775C13.6867 11.5925 13.5142 12.2 13.6117 12.635L14.1442 14.9375C14.5642 16.76 13.5967 17.465 11.9842 16.5125L9.7417 15.185C9.3367 14.945 8.6692 14.945 8.2567 15.185L6.0142 16.5125C4.4092 17.465 3.4342 16.7525 3.8542 14.9375L4.3867 12.635C4.4842 12.2 4.3117 11.5925 3.9967 11.2775L2.1367 9.41748C1.0417 8.32248 1.3942 7.21248 2.9242 6.95748L5.3167 6.55998C5.7142 6.49248 6.1942 6.13998 6.3742 5.77248L7.6942 3.13248C8.4142 1.69998 9.5842 1.69998 10.2967 3.13248Z" stroke="white" stroke-opacity="0.46" stroke-width="1.5" stroke-linecap="round" stroke-linejoin="round"/>
<path d="M2.5 8.49988V7.49988H5L6.5 6.49988L8.5 2.99988H9.5L11 6.49988L15.5 7.99988V8.49988L13 10.9999V11.9999L13.5 15.9999H13L9 13.9999L5 15.9999L4.5 15.4999L5 12.9999V11.4999L2.5 8.49988Z" fill="#EBF004"/>
</svg>
