<svg width="21" height="20" viewBox="0 0 21 20" fill="none" xmlns="http://www.w3.org/2000/svg">
<g clip-path="url(#clip0_599_608)">
<path d="M9.86417 1.66669H8.19296C4.01495 1.66669 2.34375 3.33335 2.34375 7.50002V12.5C2.34375 16.6667 4.01495 18.3334 8.19296 18.3334H13.2066C17.3846 18.3334 19.0558 16.6667 19.0558 12.5V10.8334" stroke="#E7EFF0" stroke-width="1.5" stroke-linecap="round" stroke-linejoin="round"/>
<path d="M14.0754 2.51669L7.4909 9.08336C7.24022 9.33336 6.98953 9.82503 6.9394 10.1834L6.58009 12.6917C6.44639 13.6 7.08981 14.2334 8.00061 14.1084L10.5158 13.75C10.8667 13.7 11.3597 13.45 11.6188 13.2L18.2033 6.63336C19.3397 5.50003 19.8745 4.18336 18.2033 2.51669C16.5321 0.850027 15.2119 1.38336 14.0754 2.51669Z" stroke="#E7EFF0" stroke-width="1.5" stroke-miterlimit="10" stroke-linecap="round" stroke-linejoin="round"/>
<path d="M13.1318 3.45831C13.4089 4.43954 13.934 5.33337 14.6568 6.05418C15.3796 6.775 16.2758 7.29865 17.2597 7.57498" stroke="#E7EFF0" stroke-width="1.5" stroke-miterlimit="10" stroke-linecap="round" stroke-linejoin="round"/>
</g>
<defs>
<clipPath id="clip0_599_608">
<rect width="20.0544" height="20" fill="white" transform="translate(0.672852)"/>
</clipPath>
</defs>
</svg>
