<svg width="20" height="21" viewBox="0 0 20 21" fill="none" xmlns="http://www.w3.org/2000/svg">
<g clip-path="url(#clip0_501_3299)">
<path d="M7.49968 16.5C7.49968 17.125 7.32468 17.7166 7.01635 18.2166C6.72257 18.7104 6.30528 19.1191 5.80555 19.4026C5.30582 19.686 4.74088 19.8345 4.16635 19.8333C3.59182 19.8345 3.02688 19.686 2.52715 19.4026C2.02742 19.1191 1.61013 18.7104 1.31635 18.2166C0.999132 17.7003 0.831784 17.1059 0.833015 16.5C0.833015 14.6583 2.32468 13.1666 4.16635 13.1666C6.00801 13.1666 7.49968 14.6583 7.49968 16.5Z" stroke="white" stroke-width="1.5" stroke-miterlimit="10" stroke-linecap="round" stroke-linejoin="round"/>
<path d="M2.86719 16.4999L3.69219 17.3249L5.46719 15.6833M14.7922 6.54161C14.5922 6.50828 14.3839 6.49995 14.1672 6.49995H5.83385C5.60052 6.49995 5.37552 6.51661 5.15885 6.54995C5.27552 6.31661 5.44219 6.09995 5.64219 5.89995L8.35052 3.18328C8.90054 2.63876 9.64323 2.33331 10.4172 2.33331C11.1911 2.33331 11.9338 2.63876 12.4839 3.18328L13.9422 4.65828C14.4755 5.18328 14.7589 5.84995 14.7922 6.54161Z" stroke="white" stroke-width="1.5" stroke-linecap="round" stroke-linejoin="round"/>
<path d="M18.3337 10.6666V14.8333C18.3337 17.3333 16.667 18.9999 14.167 18.9999H6.35866C6.61699 18.7833 6.84199 18.5166 7.01699 18.2166C7.32533 17.7166 7.50033 17.1249 7.50033 16.4999C7.50033 14.6583 6.00866 13.1666 4.16699 13.1666C3.16699 13.1666 2.27533 13.6083 1.66699 14.2999V10.6666C1.66699 8.39994 3.03366 6.81661 5.15866 6.54994C5.37533 6.51661 5.60033 6.49994 5.83366 6.49994H14.167C14.3837 6.49994 14.592 6.50827 14.792 6.54161C16.942 6.79161 18.3337 8.38327 18.3337 10.6666Z" stroke="white" stroke-width="1.5" stroke-linecap="round" stroke-linejoin="round"/>
<path d="M18.3337 11.0833H15.8337C14.917 11.0833 14.167 11.8333 14.167 12.75C14.167 13.6666 14.917 14.4166 15.8337 14.4166H18.3337" stroke="white" stroke-width="1.5" stroke-linecap="round" stroke-linejoin="round"/>
</g>
<defs>
<clipPath id="clip0_501_3299">
<rect width="20" height="20" fill="white" transform="translate(0 0.666626)"/>
</clipPath>
</defs>
</svg>
