<svg width="21" height="20" viewBox="0 0 21 20" fill="none" xmlns="http://www.w3.org/2000/svg">
<path d="M8.11556 18.3333H13.1156C17.2822 18.3333 18.9489 16.6666 18.9489 12.5V7.49996C18.9489 3.33329 17.2822 1.66663 13.1156 1.66663H8.11556C3.94889 1.66663 2.28223 3.33329 2.28223 7.49996V12.5C2.28223 16.6666 3.94889 18.3333 8.11556 18.3333Z" stroke="#E7EFF0" stroke-opacity="0.24" stroke-width="1.5" stroke-linecap="round" stroke-linejoin="round"/>
<path d="M9.32357 13.5667L8.61524 12.85M14.1819 11.3417C13.7355 11.7899 13.1746 12.1069 12.5603 12.2583C11.9461 12.4096 11.3021 12.3895 10.6986 12.2L8.54024 14.35C8.39024 14.5084 8.0819 14.6084 7.8569 14.575L6.8569 14.4417C6.52357 14.4 6.22357 14.0834 6.17357 13.7584L6.04024 12.7584C6.0069 12.5417 6.11524 12.2334 6.26524 12.075L8.41524 9.92503C8.04857 8.73337 8.3319 7.38337 9.27357 6.4417C10.6236 5.0917 12.8236 5.0917 14.1819 6.4417C15.5319 7.78337 15.5319 9.98337 14.1819 11.3417Z" stroke="#E7EFF0" stroke-opacity="0.24" stroke-width="1.5" stroke-miterlimit="10" stroke-linecap="round" stroke-linejoin="round"/>
<path d="M11.7773 8.91663H11.784" stroke="#E7EFF0" stroke-opacity="0.24" stroke-width="2" stroke-linecap="round" stroke-linejoin="round"/>
</svg>
