<svg width="20" height="21" viewBox="0 0 20 21" fill="none" xmlns="http://www.w3.org/2000/svg">
<path d="M13.6749 4.00028C15.2916 4.00028 16.5916 5.30861 16.5916 6.91694C16.5916 8.49194 15.3416 9.77528 13.7833 9.83361C13.7113 9.82527 13.6386 9.82527 13.5666 9.83361M15.2833 17.3336C15.8833 17.2086 16.4499 16.9669 16.9166 16.6086C18.2166 15.6336 18.2166 14.0253 16.9166 13.0503C16.4583 12.7003 15.8999 12.4669 15.3083 12.3336M7.63327 9.72528C7.54993 9.71694 7.44993 9.71694 7.35827 9.72528C6.40177 9.6928 5.49547 9.28931 4.83129 8.60024C4.16712 7.91118 3.79722 6.99065 3.79993 6.03361C3.79993 3.99194 5.44993 2.33361 7.49993 2.33361C8.48013 2.31593 9.4272 2.68835 10.1328 3.36895C10.8384 4.04955 11.2448 4.98258 11.2624 5.96278C11.2801 6.94297 10.9077 7.89005 10.2271 8.59565C9.54649 9.30126 8.61346 9.7076 7.63327 9.72528ZM3.4666 12.8003C1.44993 14.1503 1.44993 16.3503 3.4666 17.6919C5.75827 19.2253 9.5166 19.2253 11.8083 17.6919C13.8249 16.3419 13.8249 14.1419 11.8083 12.8003C9.52494 11.2753 5.7666 11.2753 3.4666 12.8003Z" stroke="#0B2D87" stroke-width="1.5" stroke-linecap="round" stroke-linejoin="round"/>
</svg>
