<svg width="21" height="20" viewBox="0 0 21 20" fill="none" xmlns="http://www.w3.org/2000/svg">
<path d="M19.0434 9.25002V5.75002C19.0434 2.83335 17.8746 1.66669 14.9526 1.66669H11.4462C8.52426 1.66669 7.35547 2.83335 7.35547 5.75002V6.66669H9.9435C12.8655 6.66669 14.0343 7.83335 14.0343 10.75V13.3334H14.9526C17.8746 13.3334 19.0434 12.1667 19.0434 9.25002Z" stroke="#14C34F" stroke-width="1.5" stroke-linecap="round" stroke-linejoin="round"/>
<path d="M14.0346 14.25V10.75C14.0346 7.83335 12.8658 6.66669 9.94381 6.66669H6.43744C3.51547 6.66669 2.34668 7.83335 2.34668 10.75V14.25C2.34668 17.1667 3.51547 18.3334 6.43744 18.3334H9.94381C12.8658 18.3334 14.0346 17.1667 14.0346 14.25Z" stroke="#14C34F" stroke-width="1.5" stroke-linecap="round" stroke-linejoin="round"/>
<path d="M5.75293 12.5L7.38089 14.125L10.6285 10.875" stroke="#14C34F" stroke-width="1.5" stroke-linecap="round" stroke-linejoin="round"/>
</svg>
