<svg width="20" height="21" viewBox="0 0 20 21" fill="none" xmlns="http://www.w3.org/2000/svg">
<path d="M15.033 11.9583C14.683 12.3 14.483 12.7917 14.533 13.3167C14.608 14.2167 15.433 14.875 16.333 14.875H17.9163V15.8667C17.9163 17.5917 16.508 19 14.783 19H5.21634C3.49134 19 2.08301 17.5917 2.08301 15.8667V10.2583C2.08301 8.53333 3.49134 7.125 5.21634 7.125H14.783C16.508 7.125 17.9163 8.53333 17.9163 10.2583V11.4583H16.233C15.7663 11.4583 15.3413 11.6417 15.033 11.9583Z" stroke="#0B2D87" stroke-width="1.5" stroke-linecap="round" stroke-linejoin="round"/>
<path d="M2.08301 11.0081V7.19976C2.08301 6.20809 2.69134 5.32476 3.61634 4.97476L10.233 2.47476C10.4727 2.38441 10.7308 2.3536 10.9851 2.38495C11.2394 2.4163 11.4822 2.50889 11.6929 2.65476C11.9035 2.80063 12.0755 2.99543 12.1943 3.22244C12.3131 3.44946 12.375 3.70189 12.3747 3.95809V7.12476M5.83301 10.6664H11.6663M18.7988 12.3081V14.0248C18.7988 14.4831 18.4322 14.8581 17.9655 14.8748H16.3322C15.4322 14.8748 14.6072 14.2164 14.5322 13.3164C14.4822 12.7914 14.6822 12.2998 15.0322 11.9581C15.3405 11.6414 15.7655 11.4581 16.2322 11.4581H17.9655C18.4322 11.4748 18.7988 11.8498 18.7988 12.3081Z" stroke="#0B2D87" stroke-width="1.5" stroke-linecap="round" stroke-linejoin="round"/>
</svg>
