<svg width="20" height="21" viewBox="0 0 20 21" fill="none" xmlns="http://www.w3.org/2000/svg">
<path d="M1.66699 19H18.3337M2.59199 19V11.5C2.59199 10.1166 3.83366 8.99998 5.36699 8.99998H14.6253C16.1587 8.99998 17.4003 10.1166 17.4003 11.5V19M4.63366 8.99998V6.64165C4.63366 5.64165 5.53366 4.83331 6.65033 4.83331H13.3587C14.467 4.83331 15.367 5.64165 15.367 6.64165V8.99998" stroke="white" stroke-width="1.5" stroke-linecap="round" stroke-linejoin="round"/>
<path d="M2.94141 12.3166L3.24974 12.325C3.86641 12.3333 4.35807 12.8333 4.35807 13.45V13.725C4.35807 14.0233 4.4766 14.3095 4.68758 14.5205C4.89856 14.7315 5.1847 14.85 5.48307 14.85C5.78144 14.85 6.06759 14.7315 6.27857 14.5205C6.48955 14.3095 6.60807 14.0233 6.60807 13.725V13.4666C6.60807 13.1683 6.7266 12.8821 6.93758 12.6712C7.14856 12.4602 7.4347 12.3416 7.73307 12.3416C8.03144 12.3416 8.31759 12.4602 8.52857 12.6712C8.73955 12.8821 8.85807 13.1683 8.85807 13.4666V13.725C8.85807 14.0233 8.9766 14.3095 9.18758 14.5205C9.39856 14.7315 9.6847 14.85 9.98307 14.85C10.2814 14.85 10.5676 14.7315 10.7786 14.5205C10.9895 14.3095 11.1081 14.0233 11.1081 13.725V13.4666C11.1081 13.1683 11.2266 12.8821 11.4376 12.6712C11.6486 12.4602 11.9347 12.3416 12.2331 12.3416C12.5314 12.3416 12.8176 12.4602 13.0286 12.6712C13.2395 12.8821 13.3581 13.1683 13.3581 13.4666V13.725C13.3581 14.0233 13.4766 14.3095 13.6876 14.5205C13.8986 14.7315 14.1847 14.85 14.4831 14.85C14.7814 14.85 15.0676 14.7315 15.2786 14.5205C15.4895 14.3095 15.6081 14.0233 15.6081 13.725V13.4666C15.6081 12.85 16.1081 12.3416 16.7331 12.3416H17.1081M6.66641 4.83331V3.16665M13.3331 4.83331V3.16665M9.99974 4.83331V2.33331" stroke="white" stroke-width="1.5" stroke-linecap="round" stroke-linejoin="round"/>
</svg>
