<svg width="21" height="20" viewBox="0 0 21 20" fill="none" xmlns="http://www.w3.org/2000/svg">
<path d="M8.22019 1.66669L5.19531 4.69169M13.5513 1.66669L16.5762 4.69169" stroke="#FF1212" stroke-width="1.5" stroke-miterlimit="10" stroke-linecap="round" stroke-linejoin="round"/>
<path d="M2.5293 6.54167C2.5293 5 3.35654 4.875 4.38433 4.875H17.3863C18.4141 4.875 19.2413 5 19.2413 6.54167C19.2413 8.33333 18.4141 8.20833 17.3863 8.20833H4.38433C3.35654 8.20833 2.5293 8.33333 2.5293 6.54167Z" stroke="#FF1212" stroke-width="1.5"/>
<path d="M9.01407 11.6666V14.625M12.8578 11.6666V14.625M3.7832 8.33331L4.9614 15.5333C5.22879 17.15 5.87221 18.3333 8.26203 18.3333H13.3007C15.8994 18.3333 16.2838 17.2 16.5846 15.6333L17.9884 8.33331" stroke="#FF1212" stroke-width="1.5" stroke-linecap="round"/>
</svg>
