<svg width="19" height="18" viewBox="0 0 19 18" fill="none" xmlns="http://www.w3.org/2000/svg">
<path d="M4.76056 13.8675V11.6775C4.76056 10.95 5.33056 10.2975 6.14056 10.2975C6.86806 10.2975 7.52056 10.8675 7.52056 11.6775V13.785C7.52056 15.2475 6.30556 16.4625 4.84306 16.4625C3.38056 16.4625 2.16556 15.24 2.16556 13.785V9.16498C2.08306 4.94998 5.41306 1.53748 9.62806 1.53748C13.8431 1.53748 17.1656 4.94998 17.1656 9.08248V13.7025C17.1656 15.165 15.9506 16.38 14.4881 16.38C13.0256 16.38 11.8106 15.165 11.8106 13.7025V11.595C11.8106 10.8675 12.3806 10.215 13.1906 10.215C13.9181 10.215 14.5706 10.785 14.5706 11.595V13.8675" stroke="#FBF7F7" stroke-opacity="0.35" stroke-width="1.5" stroke-linecap="round" stroke-linejoin="round"/>
</svg>
