<svg width="18" height="19" viewBox="0 0 18 19" fill="none" xmlns="http://www.w3.org/2000/svg">
<path d="M2.55762 17C2.55762 14.0975 5.44512 11.75 9.00012 11.75C9.72012 11.75 10.4176 11.8475 11.0701 12.0275M9.00012 9.5C9.99468 9.5 10.9485 9.10491 11.6518 8.40165C12.355 7.69839 12.7501 6.74456 12.7501 5.75C12.7501 4.75544 12.355 3.80161 11.6518 3.09835C10.9485 2.39509 9.99468 2 9.00012 2C8.00556 2 7.05173 2.39509 6.34847 3.09835C5.64521 3.80161 5.25012 4.75544 5.25012 5.75C5.25012 6.74456 5.64521 7.69839 6.34847 8.40165C7.05173 9.10491 8.00556 9.5 9.00012 9.5Z" stroke="#FFFCFC" stroke-opacity="0.64" stroke-width="1.5" stroke-linecap="round" stroke-linejoin="round"/>
<path d="M14.6175 13.985H12.3825M16.5 14C16.5 14.24 16.47 14.4725 16.41 14.6975C16.3425 14.9975 16.2225 15.29 16.065 15.545C15.8006 15.9894 15.425 16.3572 14.9753 16.6123C14.5255 16.8675 14.0171 17.0011 13.5 17C12.7616 17.0022 12.0494 16.7264 11.505 16.2275C11.28 16.0325 11.085 15.8 10.935 15.545C10.6495 15.0803 10.4989 14.5454 10.5 14C10.4995 13.6059 10.5768 13.2156 10.7274 12.8514C10.878 12.4872 11.0989 12.1563 11.3776 11.8776C11.6563 11.5989 11.9872 11.3779 12.3514 11.2274C12.7156 11.0768 13.1059 10.9995 13.5 11C14.385 11 15.1875 11.3825 15.7275 11.9975C16.2075 12.53 16.5 13.235 16.5 14Z" stroke="#FFFCFC" stroke-opacity="0.64" stroke-width="1.5" stroke-miterlimit="10" stroke-linecap="round" stroke-linejoin="round"/>
</svg>
