<svg width="20" height="21" viewBox="0 0 20 21" fill="none" xmlns="http://www.w3.org/2000/svg">
<path d="M11.8854 13.9983H7.71875" stroke="white" stroke-width="1.5" stroke-miterlimit="10" stroke-linecap="round" stroke-linejoin="round"/>
<path d="M10.5505 2.76497L10.5255 2.8233L8.10879 8.43164H5.73379C5.16712 8.43164 4.62546 8.5483 4.13379 8.75664L5.59212 5.2733L5.62546 5.18997L5.68379 5.05664C5.70046 5.00664 5.71712 4.95664 5.74212 4.91497C6.83379 2.38997 8.06712 1.81497 10.5505 2.76497Z" stroke="white" stroke-width="1.5" stroke-linecap="round" stroke-linejoin="round"/>
<path d="M15.0417 8.59829C14.6667 8.48162 14.2667 8.43162 13.8667 8.43162H8.1084L10.5251 2.82329L10.5501 2.76495C10.6751 2.80662 10.7917 2.86495 10.9167 2.91495L12.7584 3.68995C13.7834 4.11495 14.5001 4.55662 14.9334 5.08995C15.0167 5.18995 15.0834 5.28162 15.1417 5.38995C15.2167 5.50662 15.2751 5.62329 15.3084 5.74829C15.3417 5.82329 15.3667 5.89829 15.3834 5.96495C15.6084 6.66495 15.4751 7.52329 15.0417 8.59829Z" stroke="white" stroke-width="1.5" stroke-linecap="round" stroke-linejoin="round"/>
<path d="M17.9351 12.4983V14.1233C17.9351 14.29 17.9268 14.4566 17.9184 14.6233C17.7601 17.5316 16.1351 18.9983 13.0518 18.9983H6.55176C6.35176 18.9983 6.15176 18.9816 5.96009 18.9566C3.31009 18.7816 1.89342 17.365 1.71842 14.715C1.69342 14.5233 1.67676 14.3233 1.67676 14.1233V12.4983C1.67676 10.8233 2.69342 9.38164 4.14342 8.75664C4.64342 8.54831 5.17676 8.43164 5.74342 8.43164H13.8768C14.2851 8.43164 14.6851 8.48997 15.0518 8.59831C16.7101 9.10664 17.9351 10.6566 17.9351 12.4983Z" stroke="white" stroke-width="1.5" stroke-linecap="round" stroke-linejoin="round"/>
<path d="M5.59199 5.27332L4.13366 8.75665C3.40208 9.07137 2.77866 9.59339 2.34032 10.2583C1.90198 10.9232 1.66791 11.7019 1.66699 12.4983V10.0566C1.66699 7.68998 3.35033 5.71498 5.59199 5.27332ZM17.9328 10.0566V12.4983C17.9328 10.665 16.7162 9.10665 15.0495 8.60665C15.4828 7.52332 15.6078 6.67332 15.3995 5.96498C15.3828 5.88998 15.3578 5.81498 15.3245 5.74832C16.8745 6.54832 17.9328 8.18998 17.9328 10.0566Z" stroke="white" stroke-width="1.5" stroke-linecap="round" stroke-linejoin="round"/>
</svg>
