<svg width="20" height="21" viewBox="0 0 20 21" fill="none" xmlns="http://www.w3.org/2000/svg">
<path d="M18.3337 13.1666C18.3337 16.3916 15.7253 19 12.5003 19L13.3753 17.5416M1.66699 8.16665C1.66699 4.94165 4.27533 2.33331 7.50033 2.33331L6.62533 3.79165M18.3337 4.95831V8.04165C18.3337 9.91665 17.5837 10.6666 15.7087 10.6666H13.4587C11.5837 10.6666 10.8337 9.91665 10.8337 8.04165V4.95831C10.8337 3.08331 11.5837 2.33331 13.4587 2.33331H15.7087C17.5837 2.33331 18.3337 3.08331 18.3337 4.95831ZM9.16699 13.2916V16.375C9.16699 18.25 8.41699 19 6.54199 19H4.29199C2.41699 19 1.66699 18.25 1.66699 16.375V13.2916C1.66699 11.4166 2.41699 10.6666 4.29199 10.6666H6.54199C8.41699 10.6666 9.16699 11.4166 9.16699 13.2916Z" stroke="white" stroke-width="1.5" stroke-linecap="round" stroke-linejoin="round"/>
</svg>
