<svg width="21" height="20" viewBox="0 0 21 20" fill="none" xmlns="http://www.w3.org/2000/svg">
<path d="M18.7199 9.24996V5.74996C18.7199 2.83329 17.5501 1.66663 14.6255 1.66663H11.1159C8.19133 1.66663 7.02148 2.83329 7.02148 5.74996V6.66663H9.61185C12.5365 6.66663 13.7063 7.83329 13.7063 10.75V13.3333H14.6255C17.5501 13.3333 18.7199 12.1666 18.7199 9.24996Z" stroke="#24CB16" stroke-width="1.5" stroke-linecap="round" stroke-linejoin="round"/>
<path d="M13.7062 14.25V10.75C13.7062 7.83329 12.5364 6.66663 9.61179 6.66663H6.10226C3.17766 6.66663 2.00781 7.83329 2.00781 10.75V14.25C2.00781 17.1666 3.17766 18.3333 6.10226 18.3333H9.61179C12.5364 18.3333 13.7062 17.1666 13.7062 14.25Z" stroke="#24CB16" stroke-width="1.5" stroke-linecap="round" stroke-linejoin="round"/>
<path d="M5.41699 12.5L7.04642 14.125L10.2969 10.875" stroke="#24CB16" stroke-width="1.5" stroke-linecap="round" stroke-linejoin="round"/>
</svg>
