<svg width="20" height="21" viewBox="0 0 20 21" fill="none" xmlns="http://www.w3.org/2000/svg">
<path d="M7.91699 12.1248C7.91699 12.9332 8.54199 13.5832 9.30866 13.5832H10.8753C11.542 13.5832 12.0837 13.0165 12.0837 12.3082C12.0837 11.5498 11.7503 11.2748 11.2587 11.0998L8.75033 10.2248C8.25866 10.0498 7.92533 9.78317 7.92533 9.0165C7.92533 8.3165 8.46699 7.7415 9.13366 7.7415H10.7003C11.467 7.7415 12.092 8.3915 12.092 9.19984M10.0003 6.9165V14.4165" stroke="#0B2D87" stroke-width="1.5" stroke-linecap="round" stroke-linejoin="round"/>
<path d="M18.3337 10.6663C18.3337 15.2663 14.6003 18.9997 10.0003 18.9997C5.40033 18.9997 1.66699 15.2663 1.66699 10.6663C1.66699 6.06634 5.40033 2.33301 10.0003 2.33301M18.3337 5.66634V2.33301M18.3337 2.33301H15.0003M18.3337 2.33301L14.167 6.49967" stroke="#0B2D87" stroke-width="1.5" stroke-linecap="round" stroke-linejoin="round"/>
</svg>
