<svg width="20" height="21" viewBox="0 0 20 21" fill="none" xmlns="http://www.w3.org/2000/svg">
<path d="M7.08366 16.5H6.66699C3.33366 16.5 1.66699 15.6666 1.66699 11.5V7.33331C1.66699 3.99998 3.33366 2.33331 6.66699 2.33331H13.3337C16.667 2.33331 18.3337 3.99998 18.3337 7.33331V11.5C18.3337 14.8333 16.667 16.5 13.3337 16.5H12.917C12.6587 16.5 12.4087 16.625 12.2503 16.8333L11.0003 18.5C10.4503 19.2333 9.55033 19.2333 9.00033 18.5L7.75033 16.8333C7.61699 16.65 7.30866 16.5 7.08366 16.5Z" stroke="white" stroke-width="1.5" stroke-miterlimit="10" stroke-linecap="round" stroke-linejoin="round"/>
<path d="M13.3296 9.83331H13.3379M9.99544 9.83331H10.0038M6.66211 9.83331H6.66878" stroke="white" stroke-width="2" stroke-linecap="round" stroke-linejoin="round"/>
</svg>
