<svg width="21" height="21" viewBox="0 0 21 21" fill="none" xmlns="http://www.w3.org/2000/svg">
<path d="M6.87488 6.33317H14.7915V4.6665C14.7915 2.99984 14.1665 2.1665 12.2915 2.1665H9.37488C7.49988 2.1665 6.87488 2.99984 6.87488 4.6665V6.33317ZM14.1665 12.9998V16.3332C14.1665 17.9998 13.3332 18.8332 11.6665 18.8332H9.99988C8.33321 18.8332 7.49988 17.9998 7.49988 16.3332V12.9998H14.1665Z" stroke="#FFFCFC" stroke-width="1.5" stroke-miterlimit="10" stroke-linecap="round" stroke-linejoin="round"/>
<path d="M14.9999 13.0002H6.66659M6.66659 9.66683H9.16659M18.3333 8.8335V13.0002C18.3333 14.6668 17.4999 15.5002 15.8333 15.5002H14.1666V13.0002H7.49992V15.5002H5.83325C4.16659 15.5002 3.33325 14.6668 3.33325 13.0002V8.8335C3.33325 7.16683 4.16659 6.3335 5.83325 6.3335H15.8333C17.4999 6.3335 18.3333 7.16683 18.3333 8.8335Z" stroke="#FFFCFC" stroke-width="1.5" stroke-miterlimit="10" stroke-linecap="round" stroke-linejoin="round"/>
</svg>
