<svg width="21" height="21" viewBox="0 0 21 21" fill="none" xmlns="http://www.w3.org/2000/svg">
<path d="M7.84162 2.16675L4.82495 5.19175M13.1583 2.16675L16.175 5.19175" stroke="#FFFCFC" stroke-width="1.5" stroke-miterlimit="10" stroke-linecap="round" stroke-linejoin="round"/>
<path d="M2.16663 7.04167C2.16663 5.5 2.99163 5.375 4.01663 5.375H16.9833C18.0083 5.375 18.8333 5.5 18.8333 7.04167C18.8333 8.83333 18.0083 8.70833 16.9833 8.70833H4.01663C2.99163 8.70833 2.16663 8.83333 2.16663 7.04167Z" stroke="#FFFCFC" stroke-width="1.5"/>
<path d="M8.63329 12.1666V15.1249M12.4666 12.1666V15.1249M3.41663 8.83325L4.59163 16.0333C4.85829 17.6499 5.49996 18.8333 7.88329 18.8333H12.9083C15.5 18.8333 15.8833 17.6999 16.1833 16.1333L17.5833 8.83325" stroke="#FFFCFC" stroke-width="1.5" stroke-linecap="round"/>
</svg>
