<svg width="18" height="18" viewBox="0 0 18 18" fill="none" xmlns="http://www.w3.org/2000/svg">
<g clip-path="url(#clip0_717_791)">
<path d="M6.75001 14.25C6.75001 14.8125 6.59251 15.345 6.31501 15.795C6.05061 16.2394 5.67504 16.6072 5.22529 16.8623C4.77553 17.1175 4.26708 17.2511 3.75001 17.25C3.23293 17.2511 2.72448 17.1175 2.27473 16.8623C1.82497 16.6072 1.44941 16.2394 1.18501 15.795C0.899512 15.3303 0.748898 14.7954 0.750006 14.25C0.750006 12.5925 2.09251 11.25 3.75001 11.25C5.40751 11.25 6.75001 12.5925 6.75001 14.25Z" stroke="#FBF7F7" stroke-opacity="0.35" stroke-width="1.5" stroke-miterlimit="10" stroke-linecap="round" stroke-linejoin="round"/>
<path d="M2.58008 14.25L3.32258 14.9925L4.92008 13.515M13.3126 5.28747C13.1326 5.25747 12.9451 5.24997 12.7501 5.24997H5.25008C5.04008 5.24997 4.83758 5.26497 4.64258 5.29497C4.74758 5.08497 4.89758 4.88997 5.07758 4.70997L7.51508 2.26497C8.01009 1.7749 8.67851 1.5 9.37508 1.5C10.0716 1.5 10.7401 1.7749 11.2351 2.26497L12.5476 3.59247C13.0276 4.06497 13.2826 4.66497 13.3126 5.28747Z" stroke="#FBF7F7" stroke-opacity="0.35" stroke-width="1.5" stroke-linecap="round" stroke-linejoin="round"/>
<path d="M16.5 9V12.75C16.5 15 15 16.5 12.75 16.5H5.7225C5.955 16.305 6.1575 16.065 6.315 15.795C6.5925 15.345 6.75 14.8125 6.75 14.25C6.75 12.5925 5.4075 11.25 3.75 11.25C2.85 11.25 2.0475 11.6475 1.5 12.27V9C1.5 6.96 2.73 5.535 4.6425 5.295C4.8375 5.265 5.04 5.25 5.25 5.25H12.75C12.945 5.25 13.1325 5.2575 13.3125 5.2875C15.2475 5.5125 16.5 6.945 16.5 9Z" stroke="#FBF7F7" stroke-opacity="0.35" stroke-width="1.5" stroke-linecap="round" stroke-linejoin="round"/>
<path d="M16.5 9.375H14.25C13.425 9.375 12.75 10.05 12.75 10.875C12.75 11.7 13.425 12.375 14.25 12.375H16.5" stroke="#FBF7F7" stroke-opacity="0.35" stroke-width="1.5" stroke-linecap="round" stroke-linejoin="round"/>
</g>
<defs>
<clipPath id="clip0_717_791">
<rect width="18" height="18" fill="white"/>
</clipPath>
</defs>
</svg>
