<svg width="20" height="21" viewBox="0 0 20 21" fill="none" xmlns="http://www.w3.org/2000/svg">
<path d="M10.0001 11.125C7.35846 11.125 5.20846 8.97499 5.20846 6.33332C5.20846 3.69166 7.35846 1.54166 10.0001 1.54166C12.6418 1.54166 14.7918 3.69166 14.7918 6.33332C14.7918 8.97499 12.6418 11.125 10.0001 11.125ZM10.0001 2.79166C9.0615 2.79386 8.16194 3.1677 7.49822 3.83142C6.83451 4.49513 6.46066 5.39469 6.45846 6.33332C6.46066 7.27196 6.83451 8.17151 7.49822 8.83523C8.16194 9.49894 9.0615 9.87279 10.0001 9.87499C10.9388 9.87279 11.8383 9.49894 12.502 8.83523C13.1658 8.17151 13.5396 7.27196 13.5418 6.33332C13.5396 5.39469 13.1658 4.49513 12.502 3.83142C11.8383 3.1677 10.9388 2.79386 10.0001 2.79166ZM2.8418 19.4583C2.50013 19.4583 2.2168 19.175 2.2168 18.8333C2.2168 15.275 5.70846 12.375 10.0001 12.375C10.8418 12.375 11.6668 12.4833 12.4668 12.7083C12.8001 12.8 12.9918 13.1417 12.9001 13.475C12.8085 13.8083 12.4668 14 12.1335 13.9083C11.4501 13.7167 10.7335 13.625 10.0001 13.625C6.40013 13.625 3.4668 15.9583 3.4668 18.8333C3.4668 19.175 3.18346 19.4583 2.8418 19.4583Z" fill="#FFFCFC" fill-opacity="0.64"/>
<path d="M14.9993 19.4583C14.0217 19.4583 13.0795 19.0927 12.3577 18.4333C12.066 18.1833 11.8077 17.875 11.6077 17.5333C11.241 16.9333 11.041 16.225 11.041 15.5C11.041 14.4583 11.441 13.4833 12.1577 12.7417C12.9077 11.9667 13.916 11.5417 14.9993 11.5417C16.1327 11.5417 17.2077 12.025 17.941 12.8583C18.5946 13.5831 18.9568 14.5241 18.9577 15.5C18.9577 15.8167 18.916 16.1333 18.8327 16.4333C18.7493 16.8083 18.591 17.2 18.3743 17.5417C17.6827 18.725 16.3827 19.4583 14.9993 19.4583ZM14.9993 12.7917C14.5199 12.7905 14.0488 12.917 13.6344 13.1581C13.22 13.3993 12.8773 13.7464 12.6414 14.1638C12.4056 14.5813 12.2851 15.0539 12.2923 15.5333C12.2996 16.0127 12.4343 16.4816 12.6827 16.8917C12.816 17.125 12.991 17.3333 13.191 17.5083C13.691 17.9667 14.3327 18.2167 14.9993 18.2167C15.941 18.2167 16.8327 17.7167 17.316 16.9083C17.4577 16.675 17.566 16.4083 17.6243 16.15C17.6827 15.9333 17.7077 15.725 17.7077 15.5083C17.7077 14.8417 17.4577 14.2 17.0077 13.7C16.5077 13.1167 15.7743 12.7917 14.9993 12.7917Z" fill="#FFFCFC" fill-opacity="0.64"/>
<path d="M14.0996 16.9992C13.9413 16.9992 13.783 16.9408 13.658 16.8158C13.5417 16.6982 13.4766 16.5395 13.4766 16.3742C13.4766 16.2088 13.5417 16.0501 13.658 15.9325L15.4163 14.1742C15.658 13.9325 16.058 13.9325 16.2996 14.1742C16.5413 14.4158 16.5413 14.8158 16.2996 15.0575L14.5413 16.8158C14.4163 16.9408 14.258 16.9992 14.0996 16.9992Z" fill="#FFFCFC" fill-opacity="0.64"/>
<path d="M15.8834 17.0158C15.725 17.0158 15.5667 16.9575 15.4417 16.8325L13.6834 15.0742C13.5671 14.9566 13.502 14.7979 13.502 14.6325C13.502 14.4671 13.5671 14.3084 13.6834 14.1908C13.925 13.9492 14.325 13.9492 14.5667 14.1908L16.325 15.9492C16.5667 16.1908 16.5667 16.5908 16.325 16.8325C16.2 16.9575 16.0417 17.0158 15.8834 17.0158Z" fill="#FFFCFC" fill-opacity="0.64"/>
</svg>
