<svg width="19" height="19" viewBox="0 0 19 19" fill="none" xmlns="http://www.w3.org/2000/svg">
<g clip-path="url(#clip0_384_6315)">
<path d="M13.1541 15.65C13.1541 13.9025 11.4141 12.4775 9.26164 12.4775C7.10914 12.4775 5.36914 13.895 5.36914 15.65M9.26164 10.7975C9.82058 10.7975 10.3566 10.5755 10.7519 10.1802C11.1471 9.78501 11.3691 9.24896 11.3691 8.69002C11.3691 8.13108 11.1471 7.59503 10.7519 7.19979C10.3566 6.80456 9.82058 6.58252 9.26164 6.58252C8.7027 6.58252 8.16665 6.80456 7.77141 7.19979C7.37618 7.59503 7.15414 8.13108 7.15414 8.69002C7.15414 9.24896 7.37618 9.78501 7.77141 10.1802C8.16665 10.5755 8.7027 10.7975 9.26164 10.7975Z" stroke="#FFFCFC" stroke-opacity="0.64" stroke-width="1.5" stroke-linecap="round" stroke-linejoin="round"/>
<path d="M16.4167 9.875C16.4167 13.8125 13.2292 17 9.29175 17C5.35425 17 2.16675 13.8125 2.16675 9.875C2.16675 5.9375 5.35425 2.75 9.29175 2.75C10.2742 2.75 11.2117 2.945 12.0667 3.305C11.9692 3.605 11.9167 3.92 11.9167 4.25C11.9167 4.8125 12.0742 5.345 12.3517 5.795C12.5017 6.05 12.6967 6.2825 12.9217 6.4775C13.4467 6.9575 14.1442 7.25 14.9167 7.25C15.2467 7.25 15.5617 7.1975 15.8542 7.0925C16.2142 7.9475 16.4167 8.8925 16.4167 9.875Z" stroke="#FFFCFC" stroke-opacity="0.64" stroke-width="1.5" stroke-linecap="round" stroke-linejoin="round"/>
<path d="M16.0343 4.23501H13.7993M14.9168 3.14V5.38251M17.9168 4.25001C17.9168 4.49001 17.8868 4.7225 17.8268 4.9475C17.7593 5.2475 17.6393 5.54 17.4818 5.795C17.1218 6.4025 16.5443 6.875 15.8543 7.0925C15.5618 7.1975 15.2468 7.25001 14.9168 7.25001C14.1783 7.25218 13.4661 6.9764 12.9218 6.4775C12.6968 6.2825 12.5018 6.05 12.3518 5.795C12.0663 5.33032 11.9156 4.79538 11.9168 4.25001C11.9168 3.92001 11.9693 3.60501 12.0668 3.30501C12.2649 2.70603 12.6472 2.1849 13.1589 1.8159C13.6707 1.4469 14.2858 1.24886 14.9168 1.25C15.8018 1.25 16.6043 1.6325 17.1443 2.2475C17.6243 2.78 17.9168 3.48501 17.9168 4.25001Z" stroke="#FFFCFC" stroke-opacity="0.64" stroke-width="1.5" stroke-miterlimit="10" stroke-linecap="round" stroke-linejoin="round"/>
</g>
<defs>
<clipPath id="clip0_384_6315">
<rect width="18" height="18" fill="white" transform="translate(0.666748 0.5)"/>
</clipPath>
</defs>
</svg>
