<svg width="20" height="21" viewBox="0 0 20 21" fill="none" xmlns="http://www.w3.org/2000/svg">
<path d="M6.04102 6.33332H13.9577V4.66666C13.9577 2.99999 13.3327 2.16666 11.4577 2.16666H8.54102C6.66602 2.16666 6.04102 2.99999 6.04102 4.66666V6.33332ZM13.3327 13V16.3333C13.3327 18 12.4993 18.8333 10.8327 18.8333H9.16602C7.49935 18.8333 6.66602 18 6.66602 16.3333V13H13.3327Z" stroke="#FFFCFC" stroke-opacity="0.64" stroke-width="1.5" stroke-miterlimit="10" stroke-linecap="round" stroke-linejoin="round"/>
<path d="M14.1667 13H5.83333M5.83333 9.66668H8.33333M17.5 8.83334V13C17.5 14.6667 16.6667 15.5 15 15.5H13.3333V13H6.66667V15.5H5C3.33333 15.5 2.5 14.6667 2.5 13V8.83334C2.5 7.16668 3.33333 6.33334 5 6.33334H15C16.6667 6.33334 17.5 7.16668 17.5 8.83334Z" stroke="#FFFCFC" stroke-opacity="0.64" stroke-width="1.5" stroke-miterlimit="10" stroke-linecap="round" stroke-linejoin="round"/>
</svg>
