<svg width="21" height="20" viewBox="0 0 21 20" fill="none" xmlns="http://www.w3.org/2000/svg">
<path d="M18.5434 9.25002V5.75002C18.5434 2.83335 17.3746 1.66669 14.4526 1.66669H10.9462C8.02426 1.66669 6.85547 2.83335 6.85547 5.75002V6.66669H9.4435C12.3655 6.66669 13.5343 7.83335 13.5343 10.75V13.3334H14.4526C17.3746 13.3334 18.5434 12.1667 18.5434 9.25002Z" stroke="#ED949F" stroke-width="1.5" stroke-linecap="round" stroke-linejoin="round"/>
<path d="M13.5346 14.25V10.75C13.5346 7.83335 12.3658 6.66669 9.44381 6.66669H5.93744C3.01547 6.66669 1.84668 7.83335 1.84668 10.75V14.25C1.84668 17.1667 3.01547 18.3334 5.93744 18.3334H9.44381C12.3658 18.3334 13.5346 17.1667 13.5346 14.25Z" stroke="#ED949F" stroke-width="1.5" stroke-linecap="round" stroke-linejoin="round"/>
<path d="M5.25293 12.5L6.88089 14.125L10.1285 10.875" stroke="#ED949F" stroke-width="1.5" stroke-linecap="round" stroke-linejoin="round"/>
</svg>
