<svg width="19" height="19" viewBox="0 0 19 19" fill="none" xmlns="http://www.w3.org/2000/svg">
<path d="M6.83325 9.65H12.0833M6.83325 12.65H10.1183M8.33325 5H11.3333C12.8333 5 12.8333 4.25 12.8333 3.5C12.8333 2 12.0833 2 11.3333 2H8.33325C7.58325 2 6.83325 2 6.83325 3.5C6.83325 5 7.58325 5 8.33325 5Z" stroke="#FFFCFC" stroke-opacity="0.64" stroke-width="1.5" stroke-miterlimit="10" stroke-linecap="round" stroke-linejoin="round"/>
<path d="M12.8333 3.51489C15.3308 3.64989 16.5833 4.57239 16.5833 7.99989V12.4999C16.5833 15.4999 15.8333 16.9999 12.0833 16.9999H7.58325C3.83325 16.9999 3.08325 15.4999 3.08325 12.4999V7.99989C3.08325 4.57989 4.33575 3.64989 6.83325 3.51489" stroke="#FFFCFC" stroke-opacity="0.64" stroke-width="1.5" stroke-miterlimit="10" stroke-linecap="round" stroke-linejoin="round"/>
</svg>
