<svg width="21" height="21" viewBox="0 0 21 21" fill="none" xmlns="http://www.w3.org/2000/svg">
<path d="M4.5 8.66667H6.16667C7.83333 8.66667 8.66667 7.83333 8.66667 6.16667V4.5C8.66667 2.83333 7.83333 2 6.16667 2H4.5C2.83333 2 2 2.83333 2 4.5V6.16667C2 7.83333 2.83333 8.66667 4.5 8.66667ZM14.5 8.66667H16.1667C17.8333 8.66667 18.6667 7.83333 18.6667 6.16667V4.5C18.6667 2.83333 17.8333 2 16.1667 2H14.5C12.8333 2 12 2.83333 12 4.5V6.16667C12 7.83333 12.8333 8.66667 14.5 8.66667ZM14.5 18.6667H16.1667C17.8333 18.6667 18.6667 17.8333 18.6667 16.1667V14.5C18.6667 12.8333 17.8333 12 16.1667 12H14.5C12.8333 12 12 12.8333 12 14.5V16.1667C12 17.8333 12.8333 18.6667 14.5 18.6667ZM4.5 18.6667H6.16667C7.83333 18.6667 8.66667 17.8333 8.66667 16.1667V14.5C8.66667 12.8333 7.83333 12 6.16667 12H4.5C2.83333 12 2 12.8333 2 14.5V16.1667C2 17.8333 2.83333 18.6667 4.5 18.6667Z" stroke="#FEF8F8" stroke-width="1.5" stroke-miterlimit="10" stroke-linecap="round" stroke-linejoin="round"/>
</svg>
