<svg width="21" height="20" viewBox="0 0 21 20" fill="none" xmlns="http://www.w3.org/2000/svg">
<path d="M18.6746 3.28332C17.3913 6.48332 14.1746 10.8333 11.4829 12.9917L9.84128 14.3083C9.63294 14.4583 9.42461 14.5917 9.19128 14.6833C9.19128 14.5333 9.18294 14.3667 9.15794 14.2083C9.06628 13.5083 8.74961 12.8583 8.19128 12.3C7.62461 11.7333 6.93294 11.4 6.22461 11.3083C6.05794 11.3 5.89128 11.2833 5.72461 11.3C5.81628 11.0417 5.95794 10.8 6.13294 10.6L7.43294 8.95832C9.58294 6.26666 13.9496 3.03332 17.1413 1.75832C17.6329 1.57499 18.1079 1.70832 18.4079 2.01666C18.7246 2.32499 18.8746 2.79999 18.6746 3.28332Z" stroke="#FDF4F4" stroke-opacity="0.65" stroke-width="1.5" stroke-linecap="round" stroke-linejoin="round"/>
<path d="M12.3667 12.0583C12.3667 9.88334 10.6001 8.11667 8.42507 8.11667M9.19173 14.6833C9.19173 15.6 8.84173 16.475 8.1834 17.1417C7.67507 17.65 6.9834 18 6.1584 18.1083L4.1084 18.3333C2.99173 18.4583 2.0334 17.5083 2.16673 16.375L2.39173 14.325C2.59173 12.5 4.11673 11.3333 5.7334 11.3C5.90007 11.2917 6.07507 11.3 6.2334 11.3083C6.94173 11.4 7.6334 11.725 8.20006 12.3C8.7584 12.8583 9.07506 13.5083 9.16673 14.2083C9.17506 14.3667 9.19173 14.525 9.19173 14.6833Z" stroke="#FDF4F4" stroke-opacity="0.65" stroke-width="1.5" stroke-linecap="round" stroke-linejoin="round"/>
</svg>
