<svg width="20" height="21" viewBox="0 0 20 21" fill="none" xmlns="http://www.w3.org/2000/svg">
<path d="M4.16634 6.5C4.16634 6.94203 3.99075 7.36595 3.67819 7.67851C3.36563 7.99107 2.9417 8.16667 2.49967 8.16667C2.05765 8.16667 1.63372 7.99107 1.32116 7.67851C1.0086 7.36595 0.833008 6.94203 0.833008 6.5C0.833008 6.05797 1.0086 5.63405 1.32116 5.32149C1.63372 5.00893 2.05765 4.83333 2.49967 4.83333C2.9417 4.83333 3.36563 5.00893 3.67819 5.32149C3.99075 5.63405 4.16634 6.05797 4.16634 6.5ZM4.16634 6.5H7.49967M15.833 6.5C15.833 6.05797 16.0086 5.63405 16.3212 5.32149C16.6337 5.00893 17.0576 4.83333 17.4997 4.83333C17.9417 4.83333 18.3656 5.00893 18.6782 5.32149C18.9907 5.63405 19.1663 6.05797 19.1663 6.5C19.1663 6.94203 18.9907 7.36595 18.6782 7.67851C18.3656 7.99107 17.9417 8.16667 17.4997 8.16667C17.0576 8.16667 16.6337 7.99107 16.3212 7.67851C16.0086 7.36595 15.833 6.94203 15.833 6.5ZM15.833 6.5H12.4997M6.24967 14.4167V16.0833C6.24967 16.5917 5.94134 17.0333 5.50801 17.2167C5.34954 17.2934 5.17575 17.3333 4.99967 17.3333H3.33301C2.64134 17.3333 2.08301 16.775 2.08301 16.0833V14.4167C2.08301 13.725 2.64134 13.1667 3.33301 13.1667H4.99967C5.69134 13.1667 6.24967 13.725 6.24967 14.4167ZM17.9163 14.4167V16.0833C17.9163 16.775 17.358 17.3333 16.6663 17.3333H14.9997C14.8236 17.3333 14.6498 17.2934 14.4913 17.2167C14.058 17.0333 13.7497 16.5917 13.7497 16.0833V14.4167C13.7497 13.725 14.308 13.1667 14.9997 13.1667H16.6663C17.358 13.1667 17.9163 13.725 17.9163 14.4167ZM12.4997 5.25V7.75C12.4997 8.43333 11.933 9 11.2497 9H8.74967C8.06634 9 7.49967 8.43333 7.49967 7.75V5.25C7.49967 4.56667 8.06634 4 8.74967 4H11.2497C11.933 4 12.4997 4.56667 12.4997 5.25Z" stroke="#FEF8F8" stroke-width="1.5" stroke-miterlimit="10" stroke-linecap="round" stroke-linejoin="round"/>
<path d="M12.5003 7.10834C14.4753 8.10834 15.8337 10.2583 15.8337 12.75C15.8337 12.8917 15.8253 13.025 15.8087 13.1667M4.19199 13.1667C4.17533 13.025 4.16699 12.8917 4.16699 12.75C4.16699 10.2583 5.52533 8.10834 7.50033 7.10834" stroke="#FEF8F8" stroke-width="1.5" stroke-miterlimit="10" stroke-linecap="round" stroke-linejoin="round"/>
</svg>
