<svg width="21" height="20" viewBox="0 0 21 20" fill="none" xmlns="http://www.w3.org/2000/svg">
<g opacity="0.3" clip-path="url(#clip0_185_2874)">
<path d="M4.18659 9.51689L2.73659 8.06689L1.29492 9.51689M16.7366 10.4836L18.1866 11.9336L19.6366 10.4836" stroke="#E7EFF0" stroke-width="1.5" stroke-linecap="round" stroke-linejoin="round"/>
<path d="M18.1782 11.9332V9.99987C18.1782 5.7332 14.7199 2.2832 10.4615 2.2832C8.02821 2.2832 5.85321 3.41654 4.43654 5.17487M2.74487 8.06654V9.99987C2.74487 14.2665 6.20321 17.7165 10.4615 17.7165C12.8949 17.7165 15.0699 16.5832 16.4865 14.8249" stroke="#E7EFF0" stroke-width="1.5" stroke-linecap="round" stroke-linejoin="round"/>
<path d="M7.96155 10H11.6115C12.4199 10 13.0699 9.35 13.0699 8.54167C13.0699 7.81667 12.4199 7.08333 11.6115 7.08333H7.96155V10ZM7.96155 10H12.1282C13.0449 10 13.7949 10.65 13.7949 11.4583C13.7949 12.2667 13.0449 12.9167 12.1282 12.9167H7.96155V10ZM10.2949 12.9167V14.375M10.2949 5.625V7.08333" stroke="#E7EFF0" stroke-width="1.5" stroke-miterlimit="10" stroke-linecap="round" stroke-linejoin="round"/>
</g>
<defs>
<clipPath id="clip0_185_2874">
<rect width="20" height="20" fill="white" transform="translate(0.461548)"/>
</clipPath>
</defs>
</svg>
