<svg width="18" height="18" viewBox="0 0 18 18" fill="none" xmlns="http://www.w3.org/2000/svg">
<g clip-path="url(#clip0_717_806)">
<path d="M5.175 15.45C6.3 16.125 7.65 16.5 9 16.5C13.125 16.5 16.5 13.125 16.5 9C16.5 4.875 13.125 1.5 9 1.5C4.875 1.5 1.5 4.875 1.5 9C1.5 10.35 1.875 11.625 2.475 12.75L1.83 15.2295C1.79672 15.3575 1.79789 15.492 1.83337 15.6194C1.86886 15.7468 1.9374 15.8626 2.03206 15.955C2.12671 16.0473 2.24411 16.113 2.37235 16.1454C2.50058 16.1778 2.6351 16.1756 2.76225 16.1392L5.175 15.45Z" stroke="#FBF7F7" stroke-opacity="0.35" stroke-width="1.5" stroke-miterlimit="10" stroke-linecap="round" stroke-linejoin="round"/>
<path d="M12.375 11.136C12.375 11.2575 12.348 11.3827 12.2902 11.5042C12.2313 11.6298 12.154 11.7458 12.0607 11.8485C11.895 12.0308 11.7127 12.162 11.5057 12.2468C11.3032 12.3315 11.0835 12.375 10.8473 12.375C10.5023 12.375 10.134 12.294 9.74475 12.129C9.33324 11.9506 8.94326 11.7262 8.58225 11.46C8.18962 11.1732 7.81907 10.8573 7.47375 10.515C7.13209 10.1716 6.81694 9.80278 6.531 9.41175C6.26822 9.05389 6.04586 8.66804 5.868 8.26125C5.706 7.875 5.625 7.5075 5.625 7.15725C5.625 6.92775 5.6655 6.70875 5.7465 6.50625C5.8275 6.3 5.9565 6.111 6.13575 5.94225C6.35175 5.72925 6.588 5.625 6.8385 5.625C6.933 5.625 7.0275 5.64525 7.11225 5.68575C7.2 5.72625 7.27725 5.787 7.33875 5.87475L8.12325 6.97875C8.18325 7.06275 8.22825 7.14075 8.25825 7.215C8.28825 7.2855 8.3055 7.35675 8.3055 7.4205C8.30453 7.50557 8.27985 7.58868 8.23425 7.6605C8.18217 7.7483 8.11861 7.82876 8.04525 7.89975L7.788 8.16675C7.77011 8.18426 7.75606 8.20531 7.74676 8.22856C7.73746 8.2518 7.73312 8.27673 7.734 8.30175C7.734 8.328 7.73775 8.352 7.7445 8.379C7.75425 8.406 7.76475 8.42625 7.7715 8.4465C7.8315 8.55825 7.9365 8.703 8.08575 8.8785C8.238 9.054 8.4 9.23325 8.5755 9.41175C8.7585 9.591 8.934 9.756 9.11325 9.90825C9.28875 10.056 9.43425 10.1572 9.549 10.218L9.6105 10.2458C9.63744 10.2554 9.66591 10.2599 9.6945 10.2592C9.72037 10.2598 9.74608 10.255 9.76997 10.245C9.79386 10.2351 9.81541 10.2202 9.83325 10.2015L10.0898 9.948C10.1745 9.864 10.2555 9.80025 10.3335 9.759C10.4052 9.71329 10.4884 9.68885 10.5735 9.6885C10.6445 9.68955 10.7146 9.70458 10.7798 9.73275C10.854 9.76275 10.932 9.80625 11.016 9.864L12.135 10.6575C12.2161 10.7102 12.2806 10.7849 12.321 10.8727C12.3561 10.9561 12.3744 11.0456 12.375 11.136Z" stroke="#FBF7F7" stroke-opacity="0.35" stroke-width="1.5" stroke-miterlimit="10"/>
</g>
<defs>
<clipPath id="clip0_717_806">
<rect width="18" height="18" fill="white"/>
</clipPath>
</defs>
</svg>
