<svg width="19" height="18" viewBox="0 0 19 18" fill="none" xmlns="http://www.w3.org/2000/svg">
<path d="M9.66617 10.0725C9.97346 10.0725 10.2777 10.012 10.5617 9.89439C10.8456 9.7768 11.1035 9.60444 11.3208 9.38715C11.5381 9.16986 11.7105 8.9119 11.8281 8.628C11.9456 8.34409 12.0062 8.03981 12.0062 7.73252C12.0062 7.42522 11.9456 7.12094 11.8281 6.83704C11.7105 6.55314 11.5381 6.29518 11.3208 6.07789C11.1035 5.8606 10.8456 5.68824 10.5617 5.57064C10.2777 5.45304 9.97346 5.39252 9.66617 5.39252C9.04557 5.39252 8.45038 5.63905 8.01154 6.07789C7.57271 6.51672 7.32617 7.11191 7.32617 7.73252C7.32617 8.35312 7.57271 8.94831 8.01154 9.38715C8.45038 9.82598 9.04557 10.0725 9.66617 10.0725Z" stroke="#FBF7F7" stroke-opacity="0.35" stroke-width="1.5"/>
<path d="M3.38129 6.3675C4.85879 -0.127498 14.4813 -0.119998 15.9513 6.375C16.8138 10.185 14.4438 13.41 12.3663 15.405C11.6403 16.1052 10.6711 16.4964 9.66254 16.4964C8.65397 16.4964 7.68473 16.1052 6.95879 15.405C4.88879 13.41 2.51879 10.1775 3.38129 6.3675Z" stroke="#FBF7F7" stroke-opacity="0.35" stroke-width="1.5"/>
</svg>
