<svg width="19" height="19" viewBox="0 0 19 19" fill="none" xmlns="http://www.w3.org/2000/svg">
<path d="M7.10758 2L4.39258 4.7225M11.8926 2L14.6076 4.7225" stroke="#FFFCFC" stroke-opacity="0.64" stroke-width="1.5" stroke-miterlimit="10" stroke-linecap="round" stroke-linejoin="round"/>
<path d="M2 6.38745C2 4.99995 2.7425 4.88745 3.665 4.88745H15.335C16.2575 4.88745 17 4.99995 17 6.38745C17 7.99995 16.2575 7.88745 15.335 7.88745H3.665C2.7425 7.88745 2 7.99995 2 6.38745Z" stroke="#FFFCFC" stroke-opacity="0.64" stroke-width="1.5"/>
<path d="M7.82 11V13.6625M11.27 11V13.6625M3.125 8L4.1825 14.48C4.4225 15.935 5 17 7.145 17H11.6675C14 17 14.345 15.98 14.615 14.57L15.875 8" stroke="#FFFCFC" stroke-opacity="0.64" stroke-width="1.5" stroke-linecap="round"/>
</svg>
