<svg width="21" height="20" viewBox="0 0 21 20" fill="none" xmlns="http://www.w3.org/2000/svg">
<path d="M13.0985 10.0001C13.0985 11.6501 11.7652 12.9834 10.1152 12.9834C8.46517 12.9834 7.13184 11.6501 7.13184 10.0001C7.13184 8.35006 8.46517 7.01672 10.1152 7.01672C11.7652 7.01672 13.0985 8.35006 13.0985 10.0001Z" stroke="#E7EFF0" stroke-opacity="0.24" stroke-width="1.5" stroke-linecap="round" stroke-linejoin="round"/>
<path d="M10.1151 16.8916C13.0568 16.8916 15.7984 15.1583 17.7068 12.1583C18.4568 10.9833 18.4568 9.00831 17.7068 7.83331C15.7984 4.83331 13.0568 3.09998 10.1151 3.09998C7.17344 3.09998 4.43177 4.83331 2.52344 7.83331C1.77344 9.00831 1.77344 10.9833 2.52344 12.1583C4.43177 15.1583 7.17344 16.8916 10.1151 16.8916Z" stroke="#E7EFF0" stroke-opacity="0.24" stroke-width="1.5" stroke-linecap="round" stroke-linejoin="round"/>
</svg>
