<svg width="20" height="21" viewBox="0 0 20 21" fill="none" xmlns="http://www.w3.org/2000/svg">
<path d="M11.8854 13.5314H7.71875M9.80208 11.498V15.6647" stroke="#0B2D87" stroke-width="1.5" stroke-miterlimit="10" stroke-linecap="round" stroke-linejoin="round"/>
<path d="M10.5505 2.76479L10.5255 2.82312L8.10879 8.43145H5.73379C5.16712 8.43145 4.62546 8.54812 4.13379 8.75645L5.59212 5.27312L5.62546 5.18979L5.68379 5.05645C5.70046 5.00645 5.71712 4.95645 5.74212 4.91479C6.83379 2.38979 8.06712 1.81479 10.5505 2.76479Z" stroke="#0B2D87" stroke-width="1.5" stroke-linecap="round" stroke-linejoin="round"/>
<path d="M15.0417 8.59798C14.6667 8.48132 14.2667 8.43132 13.8667 8.43132H8.1084L10.5251 2.82298L10.5501 2.76465C10.6751 2.80632 10.7917 2.86465 10.9167 2.91465L12.7584 3.68965C13.7834 4.11465 14.5001 4.55632 14.9334 5.08965C15.0167 5.18965 15.0834 5.28132 15.1417 5.38965C15.2167 5.50632 15.2751 5.62298 15.3084 5.74798C15.3417 5.82298 15.3667 5.89798 15.3834 5.96465C15.6084 6.66465 15.4751 7.52298 15.0417 8.59798Z" stroke="#0B2D87" stroke-width="1.5" stroke-linecap="round" stroke-linejoin="round"/>
<path d="M17.9351 12.4983V14.1233C17.9351 14.29 17.9268 14.4566 17.9184 14.6233C17.7601 17.5316 16.1351 18.9983 13.0518 18.9983H6.55176C6.35176 18.9983 6.15176 18.9816 5.96009 18.9566C3.31009 18.7816 1.89342 17.365 1.71842 14.715C1.69342 14.5233 1.67676 14.3233 1.67676 14.1233V12.4983C1.67676 10.8233 2.69342 9.38164 4.14342 8.75664C4.64342 8.54831 5.17676 8.43164 5.74342 8.43164H13.8768C14.2851 8.43164 14.6851 8.48997 15.0518 8.59831C16.7101 9.10664 17.9351 10.6566 17.9351 12.4983Z" stroke="#0B2D87" stroke-width="1.5" stroke-linecap="round" stroke-linejoin="round"/>
<path d="M5.59199 5.27295L4.13366 8.75628C3.40208 9.071 2.77866 9.59303 2.34032 10.2579C1.90198 10.9229 1.66791 11.7016 1.66699 12.4979V10.0563C1.66699 7.68962 3.35033 5.71462 5.59199 5.27295ZM17.9328 10.0563V12.4979C17.9328 10.6646 16.7162 9.10628 15.0495 8.60628C15.4828 7.52295 15.6078 6.67295 15.3995 5.96462C15.3828 5.88962 15.3578 5.81462 15.3245 5.74795C16.8745 6.54795 17.9328 8.18962 17.9328 10.0563Z" stroke="#0B2D87" stroke-width="1.5" stroke-linecap="round" stroke-linejoin="round"/>
</svg>
