<svg width="20" height="21" viewBox="0 0 20 21" fill="none" xmlns="http://www.w3.org/2000/svg">
<path d="M11.1576 14.9667L8.86589 12.675M11.1326 12.7L8.84089 14.9917M7.34089 2.16666L4.32422 5.19166M12.6576 2.16666L15.6742 5.19166" stroke="#FFFCFC" stroke-opacity="0.64" stroke-width="1.5" stroke-miterlimit="10" stroke-linecap="round" stroke-linejoin="round"/>
<path d="M1.66602 7.04167C1.66602 5.5 2.49102 5.375 3.51602 5.375H16.4827C17.5077 5.375 18.3327 5.5 18.3327 7.04167C18.3327 8.83333 17.5077 8.70833 16.4827 8.70833H3.51602C2.49102 8.70833 1.66602 8.83333 1.66602 7.04167Z" stroke="#FFFCFC" stroke-opacity="0.64" stroke-width="1.5"/>
<path d="M2.91602 8.83334L4.09102 16.0333C4.35768 17.65 4.99935 18.8333 7.38268 18.8333H12.4077C14.9993 18.8333 15.3827 17.7 15.6827 16.1333L17.0827 8.83334" stroke="#FFFCFC" stroke-opacity="0.64" stroke-width="1.5" stroke-linecap="round"/>
</svg>
