<svg width="19" height="18" viewBox="0 0 19 18" fill="none" xmlns="http://www.w3.org/2000/svg">
<path d="M11.166 6H14.916M11.916 9H14.916M13.416 12H14.916M13.416 15.75H5.91602C2.91602 15.75 2.16602 15 2.16602 12V6C2.16602 3 2.91602 2.25 5.91602 2.25H13.416C16.416 2.25 17.166 3 17.166 6V12C17.166 15 16.416 15.75 13.416 15.75Z" stroke="#FBF7F7" stroke-opacity="0.35" stroke-width="1.5" stroke-linecap="round" stroke-linejoin="round"/>
<path d="M9.66602 12.2475C9.61554 11.721 9.38242 11.2288 9.00708 10.8562C8.63173 10.4836 8.13784 10.2541 7.61102 10.2075C7.23194 10.17 6.85009 10.17 6.47102 10.2075C5.94471 10.2555 5.4516 10.4855 5.07653 10.8578C4.70147 11.2302 4.4679 11.7216 4.41602 12.2475M7.04102 8.4675C7.40105 8.4675 7.74633 8.32448 8.00091 8.0699C8.25549 7.81532 8.39852 7.47003 8.39852 7.11C8.39852 6.74997 8.25549 6.40469 8.00091 6.15011C7.74633 5.89552 7.40105 5.7525 7.04102 5.7525C6.68098 5.7525 6.3357 5.89552 6.08112 6.15011C5.82654 6.40469 5.68352 6.74997 5.68352 7.11C5.68352 7.47003 5.82654 7.81532 6.08112 8.0699C6.3357 8.32448 6.68098 8.4675 7.04102 8.4675Z" stroke="#FBF7F7" stroke-opacity="0.35" stroke-width="1.5" stroke-linecap="round" stroke-linejoin="round"/>
</svg>
