<svg width="20" height="21" viewBox="0 0 20 21" fill="none" xmlns="http://www.w3.org/2000/svg">
<path d="M17.5 6.49998V14.8333C17.5 17.3333 16.25 19 13.3333 19H6.66667C3.75 19 2.5 17.3333 2.5 14.8333V6.49998C2.5 3.99998 3.75 2.33331 6.66667 2.33331H13.3333C16.25 2.33331 17.5 3.99998 17.5 6.49998Z" stroke="white" stroke-width="1.5" stroke-miterlimit="10" stroke-linecap="round" stroke-linejoin="round"/>
<path d="M11.0413 12.3333H14.583M7.49967 15.6666H14.583M12.9163 2.33331V8.88331C12.9163 9.24998 12.483 9.43331 12.2163 9.19165L10.283 7.40831C10.2063 7.33612 10.105 7.29592 9.99967 7.29592C9.89436 7.29592 9.79302 7.33612 9.71634 7.40831L7.78301 9.19165C7.51634 9.43331 7.08301 9.24998 7.08301 8.88331V2.33331H12.9163Z" stroke="white" stroke-width="1.5" stroke-miterlimit="10" stroke-linecap="round" stroke-linejoin="round"/>
</svg>
