<svg width="21" height="20" viewBox="0 0 21 20" fill="none" xmlns="http://www.w3.org/2000/svg">
<path d="M7.61556 18.3333H12.6156C16.7822 18.3333 18.4489 16.6666 18.4489 12.5V7.49996C18.4489 3.33329 16.7822 1.66663 12.6156 1.66663H7.61556C3.44889 1.66663 1.78223 3.33329 1.78223 7.49996V12.5C1.78223 16.6666 3.44889 18.3333 7.61556 18.3333Z" stroke="#E7EFF0" stroke-opacity="0.24" stroke-width="1.5" stroke-linecap="round" stroke-linejoin="round"/>
<path d="M8.82357 13.5667L8.11524 12.85M13.6819 11.3417C13.2355 11.7899 12.6746 12.1069 12.0603 12.2583C11.4461 12.4096 10.8021 12.3895 10.1986 12.2L8.04024 14.35C7.89024 14.5084 7.5819 14.6084 7.3569 14.575L6.3569 14.4417C6.02357 14.4 5.72357 14.0834 5.67357 13.7584L5.54024 12.7584C5.5069 12.5417 5.61524 12.2334 5.76524 12.075L7.91524 9.92503C7.54857 8.73337 7.8319 7.38337 8.77357 6.4417C10.1236 5.0917 12.3236 5.0917 13.6819 6.4417C15.0319 7.78337 15.0319 9.98337 13.6819 11.3417Z" stroke="#E7EFF0" stroke-opacity="0.24" stroke-width="1.5" stroke-miterlimit="10" stroke-linecap="round" stroke-linejoin="round"/>
<path d="M11.2773 8.91663H11.284" stroke="#E7EFF0" stroke-opacity="0.24" stroke-width="2" stroke-linecap="round" stroke-linejoin="round"/>
</svg>
