<svg width="21" height="20" viewBox="0 0 21 20" fill="none" xmlns="http://www.w3.org/2000/svg">
<g opacity="0.3">
<path d="M10.4615 14.1667V16.15C10.4615 17.7083 9.83652 18.3333 8.26986 18.3333H4.31152C2.75319 18.3333 2.12819 17.7083 2.12819 16.15V12.1917C2.12819 10.625 2.75319 10 4.31152 10H6.29486V11.975C6.29486 13.5417 6.91986 14.1667 8.47819 14.1667H10.4615Z" stroke="#E7EFF0" stroke-width="1.5" stroke-linecap="round" stroke-linejoin="round"/>
<path d="M14.6282 9.99967V11.9747C14.6282 13.5413 14.0032 14.1663 12.4365 14.1663H8.47818C6.91985 14.1663 6.29485 13.5413 6.29485 11.9747V8.01634C6.29485 6.45801 6.91985 5.83301 8.47818 5.83301H10.4615V7.80801C10.4615 9.37467 11.0865 9.99967 12.6448 9.99967H14.6282Z" stroke="#E7EFF0" stroke-width="1.5" stroke-linecap="round" stroke-linejoin="round"/>
<path d="M18.7949 3.85033V7.80866C18.7949 9.37533 18.1699 10.0003 16.6032 10.0003H12.6449C11.0865 10.0003 10.4615 9.37533 10.4615 7.80866V3.85033C10.4615 2.29199 11.0865 1.66699 12.6449 1.66699H16.6032C18.1699 1.66699 18.7949 2.29199 18.7949 3.85033Z" stroke="#E7EFF0" stroke-width="1.5" stroke-linecap="round" stroke-linejoin="round"/>
</g>
</svg>
