<svg width="20" height="21" viewBox="0 0 20 21" fill="none" xmlns="http://www.w3.org/2000/svg">
<path d="M15.033 11.9583C14.683 12.3 14.483 12.7917 14.533 13.3167C14.608 14.2167 15.433 14.875 16.333 14.875H17.9163V15.8667C17.9163 17.5917 16.508 19 14.783 19H5.21634C3.49134 19 2.08301 17.5917 2.08301 15.8667V10.2583C2.08301 8.53333 3.49134 7.125 5.21634 7.125H14.783C16.508 7.125 17.9163 8.53333 17.9163 10.2583V11.4583H16.233C15.7663 11.4583 15.3413 11.6417 15.033 11.9583Z" stroke="white" stroke-width="1.5" stroke-linecap="round" stroke-linejoin="round"/>
<path d="M2.08301 11.0083V7.2C2.08301 6.20833 2.69134 5.325 3.61634 4.975L10.233 2.475C10.4727 2.38466 10.7308 2.35384 10.9851 2.38519C11.2394 2.41654 11.4822 2.50913 11.6929 2.655C11.9035 2.80088 12.0755 2.99568 12.1943 3.22269C12.3131 3.4497 12.375 3.70214 12.3747 3.95833V7.125M5.83301 10.6667H11.6663M18.7988 12.3083V14.025C18.7988 14.4833 18.4322 14.8583 17.9655 14.875H16.3322C15.4322 14.875 14.6072 14.2167 14.5322 13.3167C14.4822 12.7917 14.6822 12.3 15.0322 11.9583C15.3405 11.6417 15.7655 11.4583 16.2322 11.4583H17.9655C18.4322 11.475 18.7988 11.85 18.7988 12.3083Z" stroke="white" stroke-width="1.5" stroke-linecap="round" stroke-linejoin="round"/>
</svg>
