<svg width="20" height="21" viewBox="0 0 20 21" fill="none" xmlns="http://www.w3.org/2000/svg">
<path d="M13.6749 3.66825C15.2916 3.66825 16.5916 4.97658 16.5916 6.58491C16.5916 8.15991 15.3416 9.44325 13.7833 9.50158C13.7113 9.49324 13.6386 9.49324 13.5666 9.50158M15.2833 17.0016C15.8833 16.8766 16.4499 16.6349 16.9166 16.2766C18.2166 15.3016 18.2166 13.6932 16.9166 12.7182C16.4583 12.3682 15.8999 12.1349 15.3083 12.0016M7.63327 9.39325C7.54993 9.38491 7.44993 9.38491 7.35827 9.39325C6.40177 9.36077 5.49547 8.95728 4.83129 8.26821C4.16712 7.57915 3.79722 6.65862 3.79993 5.70158C3.79993 3.65991 5.44993 2.00158 7.49993 2.00158C8.48013 1.9839 9.4272 2.35632 10.1328 3.03692C10.8384 3.71752 11.2448 4.65055 11.2624 5.63075C11.2801 6.61094 10.9077 7.55801 10.2271 8.26362C9.54649 8.96923 8.61346 9.37556 7.63327 9.39325ZM3.4666 12.4682C1.44993 13.8182 1.44993 16.0182 3.4666 17.3599C5.75827 18.8932 9.5166 18.8932 11.8083 17.3599C13.8249 16.0099 13.8249 13.8099 11.8083 12.4682C9.52494 10.9432 5.7666 10.9432 3.4666 12.4682Z" stroke="#FEF8F8" stroke-width="1.5" stroke-linecap="round" stroke-linejoin="round"/>
</svg>
