<svg width="20" height="21" viewBox="0 0 20 21" fill="none" xmlns="http://www.w3.org/2000/svg">
<path d="M17.6919 7.93332H14.2753M5.72526 7.93332H2.30859M2.18359 13.625V7.37499C2.18359 6.73332 2.20859 6.15832 2.27526 5.64999C2.58359 2.90832 3.87526 2.16666 7.40026 2.16666H12.6086C16.1253 2.16666 17.4253 2.90832 17.7253 5.64999C17.8003 6.15832 17.8169 6.73332 17.8169 7.37499V13.625C17.8169 14.2667 17.7919 14.8417 17.7253 15.3583C17.4169 18.0917 16.1253 18.8333 12.6003 18.8333H7.40026C3.88359 18.8333 2.58359 18.0917 2.28359 15.3583C2.20859 14.8417 2.18359 14.2667 2.18359 13.625Z" stroke="#FFFCFC" stroke-opacity="0.64" stroke-width="1.5" stroke-linecap="round" stroke-linejoin="round"/>
<path d="M14.2746 7.93334C14.2746 8.87501 13.5079 9.64167 12.5663 9.64167H7.43294C6.96628 9.64167 6.53294 9.45001 6.22461 9.13334C5.91628 8.83334 5.72461 8.40834 5.72461 7.93334C5.72461 6.99167 6.49128 6.22501 7.43294 6.22501H12.5579C13.0246 6.22501 13.4579 6.41667 13.7663 6.73334C14.0829 7.04167 14.2746 7.46667 14.2746 7.93334Z" stroke="#FFFCFC" stroke-opacity="0.64" stroke-width="1.5" stroke-linecap="round" stroke-linejoin="round"/>
</svg>
