<svg width="21" height="20" viewBox="0 0 21 20" fill="none" xmlns="http://www.w3.org/2000/svg">
<g opacity="0.3">
<path d="M18.7949 9.25033V5.75033C18.7949 2.83366 17.6282 1.66699 14.7116 1.66699H11.2116C8.2949 1.66699 7.12823 2.83366 7.12823 5.75033V6.66699H9.71157C12.6282 6.66699 13.7949 7.83366 13.7949 10.7503V13.3337H14.7116C17.6282 13.3337 18.7949 12.167 18.7949 9.25033Z" stroke="#E7EFF0" stroke-width="1.5" stroke-linecap="round" stroke-linejoin="round"/>
<path d="M13.7949 14.2503V10.7503C13.7949 7.83366 12.6282 6.66699 9.71157 6.66699H6.21157C3.2949 6.66699 2.12823 7.83366 2.12823 10.7503V14.2503C2.12823 17.167 3.2949 18.3337 6.21157 18.3337H9.71157C12.6282 18.3337 13.7949 17.167 13.7949 14.2503Z" stroke="#E7EFF0" stroke-width="1.5" stroke-linecap="round" stroke-linejoin="round"/>
<path d="M5.52826 12.5L7.15326 14.125L10.3949 10.875" stroke="#E7EFF0" stroke-width="1.5" stroke-linecap="round" stroke-linejoin="round"/>
</g>
</svg>
