<svg width="21" height="20" viewBox="0 0 21 20" fill="none" xmlns="http://www.w3.org/2000/svg">
<g clip-path="url(#clip0_268_4187)">
<path d="M19.3117 9.24984V5.74984C19.3117 2.83317 18.1419 1.6665 15.2173 1.6665H11.7077C8.78312 1.6665 7.61328 2.83317 7.61328 5.74984V6.6665H10.2036C13.1283 6.6665 14.2981 7.83317 14.2981 10.7498V13.3332H15.2173C18.1419 13.3332 19.3117 12.1665 19.3117 9.24984Z" stroke="#14C44F" stroke-width="1.5" stroke-linecap="round" stroke-linejoin="round"/>
<path d="M14.298 14.2498V10.7498C14.298 7.83317 13.1282 6.6665 10.2036 6.6665H6.69406C3.76945 6.6665 2.59961 7.83317 2.59961 10.7498V14.2498C2.59961 17.1665 3.76945 18.3332 6.69406 18.3332H10.2036C13.1282 18.3332 14.298 17.1665 14.298 14.2498Z" stroke="#14C44F" stroke-width="1.5" stroke-linecap="round" stroke-linejoin="round"/>
<path d="M6.00879 12.5L7.63821 14.125L10.8887 10.875" stroke="#14C44F" stroke-width="1.5" stroke-linecap="round" stroke-linejoin="round"/>
</g>
<defs>
<clipPath id="clip0_268_4187">
<rect width="20.0544" height="20" fill="white" transform="translate(0.928223)"/>
</clipPath>
</defs>
</svg>
