<svg width="18" height="18" viewBox="0 0 18 18" fill="none" xmlns="http://www.w3.org/2000/svg">
<path d="M16.2451 7.83001L15.5101 10.965C14.8801 13.6725 13.6351 14.7675 11.2951 14.5425C10.9201 14.5125 10.5151 14.445 10.0801 14.34L8.82013 14.04C5.69263 13.2975 4.72513 11.7525 5.46013 8.61751L6.19513 5.47501C6.34513 4.83751 6.52513 4.28251 6.75013 3.82501C7.62763 2.01001 9.12013 1.52251 11.6251 2.11501L12.8776 2.40751C16.0201 3.14251 16.9801 4.69501 16.2451 7.83001Z" stroke="#FBF7F7" stroke-opacity="0.35" stroke-width="1.5" stroke-linecap="round" stroke-linejoin="round"/>
<path d="M9.48074 6.39745L13.1182 7.31995M8.74574 9.29995L10.9207 9.85495M11.2957 14.5425C10.8307 14.8575 10.2457 15.12 9.53324 15.3525L8.34824 15.7425C5.37074 16.7025 3.80324 15.9 2.83574 12.9225L1.87574 9.95995C0.915744 6.98245 1.71074 5.40745 4.68824 4.44745L5.87324 4.05745C6.18074 3.95995 6.47324 3.87745 6.75074 3.82495C6.52574 4.28245 6.34574 4.83745 6.19574 5.47495L5.46074 8.61745C4.72574 11.7525 5.69324 13.2975 8.82074 14.04L10.0807 14.34C10.5157 14.445 10.9207 14.5125 11.2957 14.5425Z" stroke="#FBF7F7" stroke-opacity="0.35" stroke-width="1.5" stroke-linecap="round" stroke-linejoin="round"/>
</svg>
