<svg width="18" height="19" viewBox="0 0 18 19" fill="none" xmlns="http://www.w3.org/2000/svg">
<path d="M16.5 6.07251V10.5725C16.5 11.6975 16.125 12.635 15.465 13.295C14.8125 13.9475 13.875 14.3225 12.75 14.3225V15.92C12.75 16.52 12.0825 16.88 11.5875 16.55L8.25 14.3225H6.66C6.72 14.0975 6.75 13.865 6.75 13.625C6.75 12.86 6.4575 12.155 5.9775 11.6225C5.69855 11.3073 5.35555 11.0553 4.97142 10.8833C4.5873 10.7113 4.17088 10.6232 3.75 10.625C2.91 10.625 2.145 10.97 1.5975 11.5325C1.53 11.2325 1.5 10.91 1.5 10.5725V6.07251C1.5 3.82251 3 2.32251 5.25 2.32251H12.75C15 2.32251 16.5 3.82251 16.5 6.07251Z" stroke="white" stroke-width="1.5" stroke-miterlimit="10" stroke-linecap="round" stroke-linejoin="round"/>
<path d="M6.75 13.625C6.75 14.525 6.3525 15.3275 5.73 15.875C5.18309 16.3573 4.47922 16.624 3.75 16.625C2.0925 16.625 0.75 15.2825 0.75 13.625C0.75 12.68 1.185 11.8325 1.875 11.285C2.316 10.9316 2.84789 10.7099 3.40938 10.6456C3.97087 10.5812 4.53911 10.6769 5.04862 10.9214C5.55813 11.166 5.98817 11.5495 6.28918 12.0279C6.5902 12.5062 6.74994 13.0598 6.75 13.625Z" stroke="white" stroke-width="1.5" stroke-miterlimit="10" stroke-linecap="round" stroke-linejoin="round"/>
<path d="M3.9375 12.6875V13.8125L3 14.375M6.375 8.375H11.625" stroke="white" stroke-width="1.5" stroke-miterlimit="10" stroke-linecap="round" stroke-linejoin="round"/>
</svg>
