<svg width="42" height="40" viewBox="0 0 42 40" fill="none" xmlns="http://www.w3.org/2000/svg">
<rect x="0.730469" width="40.4858" height="40" rx="20" fill="#B31CE8"/>
<path d="M18.4736 12V30H23.4736V12C23.4736 10.9 22.9736 10 21.4736 10H20.4736C18.9736 10 18.4736 10.9 18.4736 12ZM10.9736 18V30H15.4181V18C15.4181 16.9 14.9736 16 13.6403 16H12.7514C11.4181 16 10.9736 16.9 10.9736 18ZM26.5292 23V30H30.9736V23C30.9736 21.9 30.5292 21 29.1959 21H28.307C26.9736 21 26.5292 21.9 26.5292 23Z" stroke="#FBF4F4" stroke-width="1.5" stroke-linecap="round" stroke-linejoin="round"/>
<path d="M10.9736 30H30.9736" stroke="#FBF4F4" stroke-width="1.5" stroke-miterlimit="10" stroke-linecap="round" stroke-linejoin="round"/>
</svg>
