<svg width="18" height="18" viewBox="0 0 18 18" fill="none" xmlns="http://www.w3.org/2000/svg">
<path d="M10.5 6H14.25M11.25 9H14.25M12.75 12H14.25M12.75 15.75H5.25C2.25 15.75 1.5 15 1.5 12V6C1.5 3 2.25 2.25 5.25 2.25H12.75C15.75 2.25 16.5 3 16.5 6V12C16.5 15 15.75 15.75 12.75 15.75Z" stroke="#FBF7F7" stroke-opacity="0.35" stroke-width="1.5" stroke-linecap="round" stroke-linejoin="round"/>
<path d="M9 12.2474C8.94952 11.721 8.7164 11.2288 8.34106 10.8562C7.96572 10.4836 7.47182 10.2541 6.945 10.2074C6.56593 10.1699 6.18407 10.1699 5.805 10.2074C5.27869 10.2555 4.78559 10.4854 4.41052 10.8578C4.03545 11.2301 3.80188 11.7215 3.75 12.2474M6.375 8.46744C6.73503 8.46744 7.08032 8.32442 7.3349 8.06984C7.58948 7.81526 7.7325 7.46997 7.7325 7.10994C7.7325 6.74991 7.58948 6.40462 7.3349 6.15004C7.08032 5.89546 6.73503 5.75244 6.375 5.75244C6.01497 5.75244 5.66968 5.89546 5.4151 6.15004C5.16052 6.40462 5.0175 6.74991 5.0175 7.10994C5.0175 7.46997 5.16052 7.81526 5.4151 8.06984C5.66968 8.32442 6.01497 8.46744 6.375 8.46744Z" stroke="#FBF7F7" stroke-opacity="0.35" stroke-width="1.5" stroke-linecap="round" stroke-linejoin="round"/>
</svg>
