<svg width="20" height="21" viewBox="0 0 20 21" fill="none" xmlns="http://www.w3.org/2000/svg">
<path d="M13.6749 4C15.2916 4 16.5916 5.30834 16.5916 6.91667C16.5916 8.49167 15.3416 9.775 13.7833 9.83334C13.7113 9.825 13.6386 9.825 13.5666 9.83334M15.2833 17.3333C15.8833 17.2083 16.4499 16.9667 16.9166 16.6083C18.2166 15.6333 18.2166 14.025 16.9166 13.05C16.4583 12.7 15.8999 12.4667 15.3083 12.3333M7.63327 9.725C7.54993 9.71667 7.44993 9.71667 7.35827 9.725C6.40177 9.69253 5.49547 9.28903 4.83129 8.59997C4.16712 7.9109 3.79722 6.99038 3.79993 6.03334C3.79993 3.99167 5.44993 2.33334 7.49993 2.33334C8.48013 2.31565 9.4272 2.68808 10.1328 3.36868C10.8384 4.04928 11.2448 4.98231 11.2624 5.9625C11.2801 6.9427 10.9077 7.88977 10.2271 8.59538C9.54649 9.30098 8.61346 9.70732 7.63327 9.725ZM3.4666 12.8C1.44993 14.15 1.44993 16.35 3.4666 17.6917C5.75827 19.225 9.5166 19.225 11.8083 17.6917C13.8249 16.3417 13.8249 14.1417 11.8083 12.8C9.52494 11.275 5.7666 11.275 3.4666 12.8Z" stroke="#FEF8F8" stroke-width="1.5" stroke-linecap="round" stroke-linejoin="round"/>
</svg>
