<svg width="18" height="19" viewBox="0 0 18 19" fill="none" xmlns="http://www.w3.org/2000/svg">
<path d="M7.21484 12.5L8.33984 13.625L10.7773 11.375" stroke="white" stroke-width="1.5" stroke-linecap="round" stroke-linejoin="round"/>
<path d="M6.60758 2L3.89258 4.7225M11.3926 2L14.1076 4.7225" stroke="white" stroke-width="1.5" stroke-miterlimit="10" stroke-linecap="round" stroke-linejoin="round"/>
<path d="M1.5 6.38751C1.5 5.00001 2.2425 4.88751 3.165 4.88751H14.835C15.7575 4.88751 16.5 5.00001 16.5 6.38751C16.5 8.00001 15.7575 7.88751 14.835 7.88751H3.165C2.2425 7.88751 1.5 8.00001 1.5 6.38751Z" stroke="white" stroke-width="1.5"/>
<path d="M2.625 8L3.6825 14.48C3.9225 15.935 4.5 17 6.645 17H11.1675C13.5 17 13.845 15.98 14.115 14.57L15.375 8" stroke="white" stroke-width="1.5" stroke-linecap="round"/>
</svg>
