<svg width="42" height="41" viewBox="0 0 42 41" fill="none" xmlns="http://www.w3.org/2000/svg">
<rect x="0.301758" width="41.1606" height="40.6667" rx="20.3333" fill="#4CB919"/>
<path d="M23.3822 28.6667H18.3822C14.2155 28.6667 12.5488 27 12.5488 22.8333V17.8333C12.5488 13.6667 14.2155 12 18.3822 12H23.3822C27.5488 12 29.2155 13.6667 29.2155 17.8333V22.8333C29.2155 27 27.5488 28.6667 23.3822 28.6667Z" stroke="#FBF4F4" stroke-width="1.5" stroke-linecap="round" stroke-linejoin="round"/>
<path d="M15.1748 24.2812C15.1748 26.4671 16.8727 28.2293 18.9822 28.2293H23.2869C25.122 28.2293 26.614 26.6873 26.614 24.7896C26.614 22.7223 25.7051 21.9937 24.3502 21.5193L17.4386 19.1471C16.0838 18.6726 15.1748 17.944 15.1748 15.8768C15.1748 13.979 16.6669 12.4371 18.502 12.4371H22.8067C24.9161 12.4371 26.614 14.1993 26.614 16.3851M20.8824 10.1665V30.4998" stroke="#FBF4F4" stroke-width="1.5" stroke-linecap="round" stroke-linejoin="round"/>
</svg>
