<svg width="21" height="20" viewBox="0 0 21 20" fill="none" xmlns="http://www.w3.org/2000/svg">
<g clip-path="url(#clip0_717_591)">
<path d="M10.0224 1.66669H8.35117C4.17316 1.66669 2.50195 3.33335 2.50195 7.50002V12.5C2.50195 16.6667 4.17316 18.3334 8.35117 18.3334H13.3648C17.5428 18.3334 19.214 16.6667 19.214 12.5V10.8334" stroke="#E7EFF0" stroke-width="1.5" stroke-linecap="round" stroke-linejoin="round"/>
<path d="M14.2336 2.51669L7.6491 9.08336C7.39842 9.33336 7.14774 9.82503 7.0976 10.1834L6.73829 12.6917C6.6046 13.6 7.24801 14.2334 8.15882 14.1084L10.674 13.75C11.0249 13.7 11.5179 13.45 11.777 13.2L18.3615 6.63336C19.4979 5.50003 20.0327 4.18336 18.3615 2.51669C16.6903 0.850027 15.3701 1.38336 14.2336 2.51669Z" stroke="#E7EFF0" stroke-width="1.5" stroke-miterlimit="10" stroke-linecap="round" stroke-linejoin="round"/>
<path d="M13.2891 3.45831C13.5661 4.43954 14.0912 5.33337 14.814 6.05418C15.5368 6.775 16.433 7.29865 17.4169 7.57498" stroke="#E7EFF0" stroke-width="1.5" stroke-miterlimit="10" stroke-linecap="round" stroke-linejoin="round"/>
</g>
<defs>
<clipPath id="clip0_717_591">
<rect width="20.0544" height="20" fill="white" transform="translate(0.830078)"/>
</clipPath>
</defs>
</svg>
