<svg width="20" height="21" viewBox="0 0 20 21" fill="none" xmlns="http://www.w3.org/2000/svg">
<path d="M7.91699 12.125C7.91699 12.9333 8.54199 13.5833 9.30866 13.5833H10.8753C11.542 13.5833 12.0837 13.0166 12.0837 12.3083C12.0837 11.55 11.7503 11.275 11.2587 11.1L8.75033 10.225C8.25866 10.05 7.92533 9.78329 7.92533 9.01663C7.92533 8.31663 8.46699 7.74163 9.13366 7.74163H10.7003C11.467 7.74163 12.092 8.39163 12.092 9.19996M10.0003 6.91663V14.4166" stroke="white" stroke-width="1.5" stroke-linecap="round" stroke-linejoin="round"/>
<path d="M18.3337 10.6666C18.3337 15.2666 14.6003 19 10.0003 19C5.40033 19 1.66699 15.2666 1.66699 10.6666C1.66699 6.06665 5.40033 2.33331 10.0003 2.33331M18.3337 5.66665V2.33331M18.3337 2.33331H15.0003M18.3337 2.33331L14.167 6.49998" stroke="white" stroke-width="1.5" stroke-linecap="round" stroke-linejoin="round"/>
</svg>
