<svg width="21" height="20" viewBox="0 0 21 20" fill="none" xmlns="http://www.w3.org/2000/svg">
<g opacity="0.3">
<path d="M10.4616 14.1667V16.15C10.4616 17.7083 9.83657 18.3333 8.2699 18.3333H4.31157C2.75323 18.3333 2.12823 17.7083 2.12823 16.15V12.1917C2.12823 10.625 2.75323 10 4.31157 10H6.2949V11.975C6.2949 13.5417 6.9199 14.1667 8.47823 14.1667H10.4616Z" stroke="#E7EFF0" stroke-width="1.5" stroke-linecap="round" stroke-linejoin="round"/>
<path d="M14.6283 9.99967V11.9747C14.6283 13.5413 14.0033 14.1663 12.4366 14.1663H8.47826C6.91992 14.1663 6.29492 13.5413 6.29492 11.9747V8.01634C6.29492 6.45801 6.91992 5.83301 8.47826 5.83301H10.4616V7.80801C10.4616 9.37467 11.0866 9.99967 12.6449 9.99967H14.6283Z" stroke="#E7EFF0" stroke-width="1.5" stroke-linecap="round" stroke-linejoin="round"/>
<path d="M18.7949 3.85033V7.80866C18.7949 9.37533 18.1699 10.0003 16.6032 10.0003H12.6449C11.0866 10.0003 10.4616 9.37533 10.4616 7.80866V3.85033C10.4616 2.29199 11.0866 1.66699 12.6449 1.66699H16.6032C18.1699 1.66699 18.7949 2.29199 18.7949 3.85033Z" stroke="#E7EFF0" stroke-width="1.5" stroke-linecap="round" stroke-linejoin="round"/>
</g>
</svg>
