<svg width="20" height="21" viewBox="0 0 20 21" fill="none" xmlns="http://www.w3.org/2000/svg">
<path d="M1.66699 18.9997H18.3337M2.59199 18.9997V11.4997C2.59199 10.1163 3.83366 8.99967 5.36699 8.99967H14.6253C16.1587 8.99967 17.4003 10.1163 17.4003 11.4997V18.9997M4.63366 8.99967V6.64134C4.63366 5.64134 5.53366 4.83301 6.65033 4.83301H13.3587C14.467 4.83301 15.367 5.64134 15.367 6.64134V8.99967" stroke="#0B2D87" stroke-width="1.5" stroke-linecap="round" stroke-linejoin="round"/>
<path d="M2.94141 12.3163L3.24974 12.3247C3.86641 12.333 4.35807 12.833 4.35807 13.4497V13.7247C4.35807 14.023 4.4766 14.3092 4.68758 14.5202C4.89856 14.7311 5.1847 14.8497 5.48307 14.8497C5.78144 14.8497 6.06759 14.7311 6.27857 14.5202C6.48955 14.3092 6.60807 14.023 6.60807 13.7247V13.4663C6.60807 13.168 6.7266 12.8818 6.93758 12.6708C7.14856 12.4599 7.4347 12.3413 7.73307 12.3413C8.03144 12.3413 8.31759 12.4599 8.52857 12.6708C8.73955 12.8818 8.85807 13.168 8.85807 13.4663V13.7247C8.85807 14.023 8.9766 14.3092 9.18758 14.5202C9.39856 14.7311 9.6847 14.8497 9.98307 14.8497C10.2814 14.8497 10.5676 14.7311 10.7786 14.5202C10.9895 14.3092 11.1081 14.023 11.1081 13.7247V13.4663C11.1081 13.168 11.2266 12.8818 11.4376 12.6708C11.6486 12.4599 11.9347 12.3413 12.2331 12.3413C12.5314 12.3413 12.8176 12.4599 13.0286 12.6708C13.2395 12.8818 13.3581 13.168 13.3581 13.4663V13.7247C13.3581 14.023 13.4766 14.3092 13.6876 14.5202C13.8986 14.7311 14.1847 14.8497 14.4831 14.8497C14.7814 14.8497 15.0676 14.7311 15.2786 14.5202C15.4895 14.3092 15.6081 14.023 15.6081 13.7247V13.4663C15.6081 12.8497 16.1081 12.3413 16.7331 12.3413H17.1081M6.66641 4.83301V3.16634M13.3331 4.83301V3.16634M9.99974 4.83301V2.33301" stroke="#0B2D87" stroke-width="1.5" stroke-linecap="round" stroke-linejoin="round"/>
</svg>
