<svg width="20" height="21" viewBox="0 0 20 21" fill="none" xmlns="http://www.w3.org/2000/svg">
<path d="M7.08366 16.4997H6.66699C3.33366 16.4997 1.66699 15.6663 1.66699 11.4997V7.33301C1.66699 3.99967 3.33366 2.33301 6.66699 2.33301H13.3337C16.667 2.33301 18.3337 3.99967 18.3337 7.33301V11.4997C18.3337 14.833 16.667 16.4997 13.3337 16.4997H12.917C12.6587 16.4997 12.4087 16.6247 12.2503 16.833L11.0003 18.4997C10.4503 19.233 9.55033 19.233 9.00033 18.4997L7.75033 16.833C7.61699 16.6497 7.30866 16.4997 7.08366 16.4997Z" stroke="#0B2D87" stroke-width="1.5" stroke-miterlimit="10" stroke-linecap="round" stroke-linejoin="round"/>
<path d="M13.3296 9.83301H13.3379M9.99544 9.83301H10.0038M6.66211 9.83301H6.66878" stroke="#0B2D87" stroke-width="2" stroke-linecap="round" stroke-linejoin="round"/>
</svg>
