<svg width="21" height="20" viewBox="0 0 21 20" fill="none" xmlns="http://www.w3.org/2000/svg">
<g opacity="0.3">
<path d="M10.4615 14.1667V16.15C10.4615 17.7083 9.83651 18.3333 8.26984 18.3333H4.31151C2.75317 18.3333 2.12817 17.7083 2.12817 16.15V12.1917C2.12817 10.625 2.75317 10 4.31151 10H6.29484V11.975C6.29484 13.5417 6.91984 14.1667 8.47817 14.1667H10.4615Z" stroke="#E7EFF0" stroke-width="1.5" stroke-linecap="round" stroke-linejoin="round"/>
<path d="M14.628 10.0002V11.9752C14.628 13.5418 14.003 14.1668 12.4363 14.1668H8.47801C6.91968 14.1668 6.29468 13.5418 6.29468 11.9752V8.01683C6.29468 6.4585 6.91968 5.8335 8.47801 5.8335H10.4613V7.8085C10.4613 9.37516 11.0863 10.0002 12.6447 10.0002H14.628Z" stroke="#E7EFF0" stroke-width="1.5" stroke-linecap="round" stroke-linejoin="round"/>
<path d="M18.7948 3.84984V7.80817C18.7948 9.37484 18.1698 9.99984 16.6031 9.99984H12.6448C11.0864 9.99984 10.4614 9.37484 10.4614 7.80817V3.84984C10.4614 2.2915 11.0864 1.6665 12.6448 1.6665H16.6031C18.1698 1.6665 18.7948 2.2915 18.7948 3.84984Z" stroke="#E7EFF0" stroke-width="1.5" stroke-linecap="round" stroke-linejoin="round"/>
</g>
</svg>
