<svg width="20" height="21" viewBox="0 0 20 21" fill="none" xmlns="http://www.w3.org/2000/svg">
<path d="M18.3337 13.1663C18.3337 16.3913 15.7253 18.9997 12.5003 18.9997L13.3753 17.5413M1.66699 8.16634C1.66699 4.94134 4.27533 2.33301 7.50033 2.33301L6.62533 3.79134M18.3337 4.95801V8.04134C18.3337 9.91634 17.5837 10.6663 15.7087 10.6663H13.4587C11.5837 10.6663 10.8337 9.91634 10.8337 8.04134V4.95801C10.8337 3.08301 11.5837 2.33301 13.4587 2.33301H15.7087C17.5837 2.33301 18.3337 3.08301 18.3337 4.95801ZM9.16699 13.2913V16.3747C9.16699 18.2497 8.41699 18.9997 6.54199 18.9997H4.29199C2.41699 18.9997 1.66699 18.2497 1.66699 16.3747V13.2913C1.66699 11.4163 2.41699 10.6663 4.29199 10.6663H6.54199C8.41699 10.6663 9.16699 11.4163 9.16699 13.2913Z" stroke="#0B2D87" stroke-width="1.5" stroke-linecap="round" stroke-linejoin="round"/>
</svg>
