<svg width="21" height="20" viewBox="0 0 21 20" fill="none" xmlns="http://www.w3.org/2000/svg">
<path d="M18.3676 9.24984V5.74984C18.3676 2.83317 17.1988 1.6665 14.2768 1.6665H10.7705C7.84848 1.6665 6.67969 2.83317 6.67969 5.74984V6.6665H9.26772C12.1897 6.6665 13.3585 7.83317 13.3585 10.7498V13.3332H14.2768C17.1988 13.3332 18.3676 12.1665 18.3676 9.24984Z" stroke="#790F0F" stroke-width="1.5" stroke-linecap="round" stroke-linejoin="round"/>
<path d="M13.3578 14.2498V10.7498C13.3578 7.83317 12.189 6.6665 9.26706 6.6665H5.76069C2.83871 6.6665 1.66992 7.83317 1.66992 10.7498V14.2498C1.66992 17.1665 2.83871 18.3332 5.76069 18.3332H9.26706C12.189 18.3332 13.3578 17.1665 13.3578 14.2498Z" stroke="#790F0F" stroke-width="1.5" stroke-linecap="round" stroke-linejoin="round"/>
<path d="M5.07617 12.5L6.70413 14.125L9.95169 10.875" stroke="#790F0F" stroke-width="1.5" stroke-linecap="round" stroke-linejoin="round"/>
</svg>
