<svg width="18" height="18" viewBox="0 0 18 18" fill="none" xmlns="http://www.w3.org/2000/svg">
<g clip-path="url(#clip0_717_757)">
<path d="M4.09455 13.8675V11.6775C4.09455 10.95 4.66455 10.2975 5.47455 10.2975C6.20205 10.2975 6.85455 10.8675 6.85455 11.6775V13.785C6.85455 15.2475 5.63955 16.4625 4.17705 16.4625C2.71455 16.4625 1.49955 15.24 1.49955 13.785V9.16498C1.41705 4.94998 4.74705 1.53748 8.96205 1.53748C13.177 1.53748 16.4995 4.94998 16.4995 9.08248V13.7025C16.4995 15.165 15.2845 16.38 13.822 16.38C12.3595 16.38 11.1445 15.165 11.1445 13.7025V11.595C11.1445 10.8675 11.7145 10.215 12.5245 10.215C13.252 10.215 13.9045 10.785 13.9045 11.595V13.8675" stroke="#FBF7F7" stroke-opacity="0.35" stroke-width="1.5" stroke-linecap="round" stroke-linejoin="round"/>
</g>
<defs>
<clipPath id="clip0_717_757">
<rect width="18" height="18" fill="white"/>
</clipPath>
</defs>
</svg>
