<svg width="20" height="21" viewBox="0 0 20 21" fill="none" xmlns="http://www.w3.org/2000/svg">
<path d="M13.6749 3.99979C15.2916 3.99979 16.5916 5.30812 16.5916 6.91646C16.5916 8.49146 15.3416 9.77479 13.7833 9.83312C13.7113 9.82479 13.6386 9.82479 13.5666 9.83312M15.2833 17.3331C15.8833 17.2081 16.4499 16.9665 16.9166 16.6081C18.2166 15.6331 18.2166 14.0248 16.9166 13.0498C16.4583 12.6998 15.8999 12.4665 15.3083 12.3331M7.63327 9.72479C7.54993 9.71645 7.44993 9.71645 7.35827 9.72479C6.40177 9.69231 5.49547 9.28882 4.83129 8.59975C4.16712 7.91069 3.79722 6.99017 3.79993 6.03312C3.79993 3.99145 5.44993 2.33312 7.49993 2.33312C8.48013 2.31544 9.4272 2.68786 10.1328 3.36847C10.8384 4.04907 11.2448 4.98209 11.2624 5.96229C11.2801 6.94248 10.9077 7.88956 10.2271 8.59516C9.54649 9.30077 8.61346 9.70711 7.63327 9.72479ZM3.4666 12.7998C1.44993 14.1498 1.44993 16.3498 3.4666 17.6915C5.75827 19.2248 9.5166 19.2248 11.8083 17.6915C13.8249 16.3415 13.8249 14.1415 11.8083 12.7998C9.52494 11.2748 5.7666 11.2748 3.4666 12.7998Z" stroke="#0B2D87" stroke-width="1.5" stroke-linecap="round" stroke-linejoin="round"/>
</svg>
