<svg width="21" height="20" viewBox="0 0 21 20" fill="none" xmlns="http://www.w3.org/2000/svg">
<path d="M7.76414 1.66663L4.73926 4.69163M13.0953 1.66663L16.1202 4.69163" stroke="#FF1212" stroke-width="1.5" stroke-miterlimit="10" stroke-linecap="round" stroke-linejoin="round"/>
<path d="M2.07324 6.54167C2.07324 5 2.90049 4.875 3.92828 4.875H16.9302C17.958 4.875 18.7853 5 18.7853 6.54167C18.7853 8.33333 17.958 8.20833 16.9302 8.20833H3.92828C2.90049 8.20833 2.07324 8.33333 2.07324 6.54167Z" stroke="#FF1212" stroke-width="1.5"/>
<path d="M8.55802 11.6667V14.625M12.4018 11.6667V14.625M3.32715 8.33337L4.50535 15.5334C4.77274 17.15 5.41615 18.3334 7.80597 18.3334H12.8447C15.4434 18.3334 15.8278 17.2 16.1286 15.6334L17.5324 8.33337" stroke="#FF1212" stroke-width="1.5" stroke-linecap="round"/>
</svg>
