<svg width="20" height="20" viewBox="0 0 20 20" fill="none" xmlns="http://www.w3.org/2000/svg">
<g clip-path="url(#clip0_409_7487)">
<path d="M7.50017 15.8338C7.50017 16.4588 7.32517 17.0505 7.01684 17.5505C6.72306 18.0442 6.30577 18.453 5.80604 18.7364C5.30631 19.0199 4.74137 19.1683 4.16684 19.1672C3.59231 19.1683 3.02737 19.0199 2.52764 18.7364C2.02791 18.453 1.61061 18.0442 1.31684 17.5505C0.99962 17.0342 0.832272 16.4398 0.833503 15.8338C0.833503 13.9922 2.32517 12.5005 4.16684 12.5005C6.0085 12.5005 7.50017 13.9922 7.50017 15.8338Z" stroke="#FBF4F4" stroke-opacity="0.4" stroke-width="1.5" stroke-miterlimit="10" stroke-linecap="round" stroke-linejoin="round"/>
<path d="M2.86768 15.8336L3.69268 16.6586L5.46768 15.017M14.7927 5.87529C14.5927 5.84196 14.3843 5.83363 14.1677 5.83363H5.83434C5.60101 5.83363 5.37601 5.85029 5.15934 5.88363C5.27601 5.65029 5.44268 5.43363 5.64268 5.23363L8.35101 2.51696C8.90102 1.97244 9.64371 1.66699 10.4177 1.66699C11.1916 1.66699 11.9343 1.97244 12.4843 2.51696L13.9427 3.99196C14.476 4.51696 14.7593 5.18363 14.7927 5.87529Z" stroke="#FBF4F4" stroke-opacity="0.4" stroke-width="1.5" stroke-linecap="round" stroke-linejoin="round"/>
<path d="M18.3332 10.0007V14.1673C18.3332 16.6673 16.6665 18.334 14.1665 18.334H6.35817C6.6165 18.1173 6.8415 17.8507 7.0165 17.5507C7.32484 17.0507 7.49984 16.459 7.49984 15.834C7.49984 13.9923 6.00817 12.5007 4.1665 12.5007C3.1665 12.5007 2.27484 12.9423 1.6665 13.634V10.0007C1.6665 7.73398 3.03317 6.15065 5.15817 5.88398C5.37484 5.85065 5.59984 5.83398 5.83317 5.83398H14.1665C14.3832 5.83398 14.5915 5.84232 14.7915 5.87565C16.9415 6.12565 18.3332 7.71732 18.3332 10.0007Z" stroke="#FBF4F4" stroke-opacity="0.4" stroke-width="1.5" stroke-linecap="round" stroke-linejoin="round"/>
<path d="M18.3332 10.417H15.8332C14.9165 10.417 14.1665 11.167 14.1665 12.0837C14.1665 13.0003 14.9165 13.7503 15.8332 13.7503H18.3332" stroke="#FBF4F4" stroke-opacity="0.4" stroke-width="1.5" stroke-linecap="round" stroke-linejoin="round"/>
</g>
<defs>
<clipPath id="clip0_409_7487">
<rect width="20" height="20" fill="white" transform="translate(0 0.000488281)"/>
</clipPath>
</defs>
</svg>
