<svg width="109" height="100" viewBox="0 0 109 100" fill="none" xmlns="http://www.w3.org/2000/svg">
<path d="M14.5 0.995475L3.71278 0.228446C1.97652 0.104988 0.5 1.48024 0.5 3.22089V14.771C0.5 16.2846 1.62753 17.5611 3.12956 17.748L8.5 18.4163L20.2269 19.8755C20.4086 19.8981 20.5878 19.9373 20.7623 19.9926L31.2953 23.3288C31.4316 23.372 31.5646 23.4249 31.6934 23.487L47.7849 31.2536C47.9281 31.3227 48.0655 31.4031 48.196 31.494L57.8164 38.1979C57.9386 38.283 58.0543 38.3772 58.1626 38.4795L68 47.7828L74.8575 56.0721C74.9524 56.1868 75.0386 56.3083 75.1154 56.4358L81 66.1991L87.3718 79.3729C87.457 79.5492 87.5249 79.7335 87.5742 79.923L90.9327 92.8184C90.9775 92.9904 91.0069 93.1661 91.0206 93.3433L91.286 96.7786C91.4068 98.3412 92.7099 99.5475 94.2771 99.5475H105.52C107.353 99.5475 108.758 97.9186 108.488 96.1059L107 86.1086L103.572 72.9454C103.524 72.762 103.459 72.5835 103.378 72.4124L94.6045 53.9752C94.5349 53.8291 94.4537 53.6888 94.3615 53.5558L84.6557 39.546C84.5521 39.3965 84.4351 39.2567 84.3062 39.1283L73 27.8733L60.5 18.4163L48.5 11.448L35.7002 6.05715C35.5669 6.00102 35.4297 5.95461 35.2898 5.91826L24 2.98643L14.5 0.995475Z" fill="#B78F29"/>
</svg>
